<svg xmlns="http://www.w3.org/2000/svg" width="17.5" height="17.5" viewBox="0 0 17.5 17.5"><path d="M16.25,1.25h-15A1.255,1.255,0,0,0,0,2.512V17.488A1.255,1.255,0,0,0,1.246,18.75h15a1.259,1.259,0,0,0,1.25-1.262V2.512A1.259,1.259,0,0,0,16.25,1.25Zm-10.961,15H2.7V7.9h2.6V16.25Zm-1.3-9.492a1.5,1.5,0,1,1,1.5-1.5A1.5,1.5,0,0,1,3.992,6.758Zm11.02,9.492H12.418V12.188c0-.969-.02-2.215-1.348-2.215-1.352,0-1.559,1.055-1.559,2.145V16.25H6.918V7.9H9.406V9.039h.035A2.732,2.732,0,0,1,11.9,7.691c2.625,0,3.113,1.73,3.113,3.98Z" transform="translate(0 -1.25)" fill="#18516c"/></svg>