<svg xmlns="http://www.w3.org/2000/svg" xmlns:xlink="http://www.w3.org/1999/xlink" width="1174.955" height="483.275" viewBox="0 0 1174.955 483.275"><defs><linearGradient id="a" x1="-5.017" y1="2.072" x2="-5.016" y2="2.072" gradientUnits="objectBoundingBox"><stop offset="0" stop-color="#7bb3fe"/><stop offset="1" stop-color="#9178ff"/></linearGradient><linearGradient id="b" x1="0.5" x2="0.5" y2="1" gradientUnits="objectBoundingBox"><stop offset="0" stop-color="#7bb3fe"/><stop offset="1" stop-color="#8e7ffe"/></linearGradient><linearGradient id="c" x1="-0.712" y1="2.608" x2="-0.711" y2="2.608" xlink:href="#a"/><linearGradient id="d" x1="0.5" x2="0.5" y2="1" gradientUnits="objectBoundingBox"><stop offset="0" stop-color="#7bb3fe"/><stop offset="1" stop-color="#8c84fe"/></linearGradient><linearGradient id="e" x1="-4.465" y1="4.184" x2="-4.464" y2="4.184" gradientUnits="objectBoundingBox"><stop offset="0" stop-color="#7c8a9e"/><stop offset="1" stop-color="#9178ff"/></linearGradient><linearGradient id="f" x1="0.5" x2="0.5" y2="1" gradientUnits="objectBoundingBox"><stop offset="0" stop-color="#74b0fc"/><stop offset="1" stop-color="#8c8ffe"/></linearGradient></defs><g transform="translate(-212.522 841.635)"><path d="M1072.673-435.452c-12.147,0-22.4-5.912-33.832-7.911V-464.43h66.434c1.044,14.663-13.419,26.856-28.068,28.7a36.4,36.4,0,0,1-4.535.281m-76.97-4.085a45.368,45.368,0,0,1-5.789-.359c-14.107-1.808-28.305-9.065-34.748-21.743q-.7-1.382-1.267-2.791h77.444v20.411c-5.967,0-11.8,1.123-17.683,2.241s-11.821,2.24-17.957,2.24M949.562-540.36c-5.055-12.2-12.4-24.217-7.528-35.936,5.125-12.329,21.823-17.184,25.807-29.928,4.131-13.211-7.5-25.476-13.341-38.023-8.036-17.26-5.048-37.111-.617-55.928l21.235-37.344H964.182a114.461,114.461,0,0,1,13.952-28.389c10.089-14.407,24.384-25.421,34.811-39.587,5.855-7.955,10.459-16.859,17.112-24.159,6.065-6.653,14.481-11.983,23.349-11.983a21.839,21.839,0,0,1,2.6.155c12.823,1.539,21.611,14.184,24.707,26.723s2.241,25.759,4.915,38.395c7.571,35.781,42.391,63.414,42.265,99.988-.028,8.064-1.815,15.944-3.892,23.788h-85.156v-73.569h-7.5v73.569h-17.967L949.562-540.36" fill="url(#a)"/><path d="M1072.673-435.452c-12.147,0-22.4-5.912-33.832-7.911V-464.43h66.434c1.044,14.663-13.419,26.856-28.068,28.7a36.4,36.4,0,0,1-4.535.281m-76.97-4.085a45.368,45.368,0,0,1-5.789-.359c-14.107-1.808-28.305-9.065-34.748-21.743q-.7-1.382-1.267-2.791h77.444v20.411c-5.967,0-11.8,1.123-17.683,2.241s-11.821,2.24-17.957,2.24M949.562-540.36c-5.055-12.2-12.4-24.217-7.528-35.936,5.125-12.329,21.823-17.184,25.807-29.928,4.131-13.211-7.5-25.476-13.341-38.023-8.036-17.26-5.048-37.111-.617-55.928l21.235-37.344H964.182a114.461,114.461,0,0,1,13.952-28.389c10.089-14.407,24.384-25.421,34.811-39.587,5.855-7.955,10.459-16.859,17.112-24.159,6.065-6.653,14.481-11.983,23.349-11.983a21.839,21.839,0,0,1,2.6.155c12.823,1.539,21.611,14.184,24.707,26.723s2.241,25.759,4.915,38.395c7.571,35.781,42.391,63.414,42.265,99.988-.028,8.064-1.815,15.944-3.892,23.788h-85.156v-73.569h-7.5v73.569h-17.967L949.562-540.36" fill="url(#b)"/><path d="M1078.1-639.9l-6.26-4.129-33,50.113V-726.157h-7.5v231.519l-42.305-43.587-5.383,5.229,47.688,49.132v125.5h7.5V-580.276L1078.1-639.9" fill="#1e5675"/><path d="M341.334-409.887c-1.792,0-3.6-.071-5.449-.221-15.7-1.289-31.727-7.873-40.771-20.779-10.772-15.371-10.108-36.965-22.1-51.408-16.984-20.453-55.445-22.388-60.108-48.561-2.432-13.655,6.965-26.785,18.025-35.153s24.188-13.876,34.536-23.108c19.852-17.708,27.1-46.9,48.268-63.013,12.04-9.168,26.179-12.608,41.06-12.608,21.336,0,44.2,7.068,64.6,14.453,8.415,3.047,16.913,6.141,25.187,9.661L361.81-495.048H508.391c10.252,26.517-10.079,57.663-36.588,68.837-12.333,5.2-24.151,6.295-36.039,6.295-4.343,0-8.693-.145-13.084-.292s-8.816-.292-13.309-.292c-3.575,0-7.191.092-10.864.351-19.813,1.392-37,10.263-57.173,10.263" fill="url(#c)"/><path d="M341.334-409.887c-1.792,0-3.6-.071-5.449-.221-15.7-1.289-31.727-7.873-40.771-20.779-10.772-15.371-10.108-36.965-22.1-51.408-16.984-20.453-55.445-22.388-60.108-48.561-2.432-13.655,6.965-26.785,18.025-35.153s24.188-13.876,34.536-23.108c19.852-17.708,27.1-46.9,48.268-63.013,12.04-9.168,26.179-12.608,41.06-12.608,21.336,0,44.2,7.068,64.6,14.453,8.415,3.047,16.913,6.141,25.187,9.661L361.81-495.048H508.391c10.252,26.517-10.079,57.663-36.588,68.837-12.333,5.2-24.151,6.295-36.039,6.295-4.343,0-8.693-.145-13.084-.292s-8.816-.292-13.309-.292c-3.575,0-7.191.092-10.864.351-19.813,1.392-37,10.263-57.173,10.263" fill="url(#d)"/><path d="M421.882-497.784l-5.267-4.44-34.929,41.393v-155.73H374.8v94.248l-31.207-43.1-5.576,4.037,36.783,50.8V-358.36h6.889v-91.788l40.2-47.636" fill="#215872"/><path d="M689.8-386.094c-5.621-10.1-16.321-16.233-26.9-20.893a193.148,193.148,0,0,0-39.892-12.437c-37.333,8.993-63.956,30.705-63.956,45.612v7.34a8.112,8.112,0,0,0,8.112,8.112H693.057c1.883-9.377,1.372-19.42-3.253-27.733" fill="#00d4bb"/><path d="M657.526-423.608a147.382,147.382,0,0,0-34.519,4.184A193.15,193.15,0,0,1,662.9-406.987c10.583,4.66,21.283,10.789,26.9,20.893,4.625,8.313,5.136,18.356,3.253,27.733h54.831A8.112,8.112,0,0,0,756-366.472v-7.34c0-19.2-44.086-49.8-98.473-49.8" fill="#00b7b2"/><path d="M975.116-737.518H499.684L361.81-495.048H837.242l137.874-242.47" fill="#0088db"/><path d="M975.116-737.518,837.242-495.048H361.81l6.652,13.14H843.893l137.874-242.47-6.651-13.14" fill="#0049bf"/><path d="M593.472-623.169,617.941-666.2l24.467-43.033H519.46l-48.936,86.065H593.472" fill="#c8e8e2"/><path d="M462.691-609.392l-48.939,86.064H536.7l24.469-43.033,24.469-43.031H462.691" fill="#c8e8e2"/><path d="M658.253-709.234l-48.935,86.065H739.757L764.223-666.2l24.469-43.033H658.253" fill="#c8e8e2"/><path d="M804.537-709.234,755.6-623.169H880.889l48.935-86.065H804.537" fill="#c8e8e2"/><path d="M723.3-566.361l24.471-43.031H873.054l-48.935,86.064H698.83L723.3-566.361m32.3-56.808,48.935-86.065H929.823l-48.935,86.065H755.6m8.621-43.032-24.467,43.032H609.318l48.935-86.065h130.44L764.223-666.2M642.408-709.234,617.941-666.2l-24.469,43.032H470.524l48.936-86.065H642.408M536.7-523.328H413.752l48.939-86.064H585.639l-24.469,43.031L536.7-523.328m146.285,0H552.547l48.937-86.064h130.44l-48.938,86.064M953.5-723.01H511.448L451.336-617.29l-61.263,107.74H832.13l64.6-113.618L953.5-723.01" fill="#eff"/><path d="M873.054-609.392H747.769L723.3-566.361,698.83-523.328H824.119l48.935-86.064" fill="#c8e8e2"/><path d="M601.484-609.392l-48.937,86.064H682.985l48.939-86.064H601.484" fill="#c8e8e2"/><path d="M438.848-595.328l12.488-21.963-12.488,21.963h0" fill="#a1d3f2"/><path d="M485.516-623.169H470.524L496.187-668.3l68.61-40.932h64.981L485.516-623.169" fill="#ebf7f4"/><path d="M438.848-595.328l12.488-21.963L472.207-654l23.98-14.305-25.663,45.133h14.992l-46.668,27.841m190.93-113.906H564.8l23.092-13.776H652.87l-23.092,13.776" fill="#f9ffff"/><path d="M832.13-509.551h0l64.6-113.618,6.208-10.919h0l-6.208,10.92-27.151,47.748-37.453,65.87" fill="#a1d3f2"/><path d="M832.13-509.551H694.192l23.092-13.777H824.119l48.935-86.064H861.546l41.4-24.7-6.208,10.92-64.6,113.618" fill="#f9ffff"/><path d="M824.119-523.328H717.284l144.262-86.064h11.508l-48.935,86.064" fill="#ebf7f4"/><path d="M534.323-623.169H512.792l122.1-72.841-11.052,19.439h0l-89.513,53.4" fill="#ebf7f4"/><path d="M437.771-565.568l11.055-19.44L489.7-609.392h21.532l-73.46,43.824" fill="#ebf7f4"/><path d="M647.814-690.876l10.439-18.359h20.332l-30.769,18.357h0" fill="#ebf7f4"/><path d="M413.791-551.261l7.328-12.887,3.727-6.555,23.979-14.305-11.053,19.44-23.98,14.307m97.44-58.13H489.7l23.093-13.777h21.531l-23.092,13.777m112.606-67.18,11.052-19.439h0l45.259-27h21.531l-23.093,13.776H658.253l-10.439,18.359-23.979,14.3" fill="#f9ffff"/><path d="M453.276-523.328H439.6l144.262-86.064h1.773l-6.109,10.743h0l-126.253,75.32" fill="#ebf7f4"/><path d="M620.632-623.169H609.318l1.211-2.131,140.692-83.934h13.673L620.632-623.169" fill="#ebf7f4"/><path d="M430.184-509.551H416.51L439.6-523.328h13.673l-23.092,13.777m149.345-89.1,6.109-10.743h-1.773L610.529-625.3l-1.211,2.131h11.313l-41.1,24.521M764.894-709.234H751.221l23.092-13.776h13.675l-23.093,13.776" fill="#f9ffff"/><path d="M536.7-523.328h-4.839l7.324-4.369-2.485,4.369" fill="#ebf7f4"/><path d="M530.3-509.551H508.768l23.093-13.777H536.7l2.485-4.369h0L563.165-542l-10.619,18.676h.845L530.3-509.551" fill="#f9ffff"/><path d="M720.748-623.169H699.216l61.352-36.6-11.053,19.439-28.767,17.163" fill="#ebf7f4"/><path d="M773.494-654.637l11.053-19.44,58.93-35.157H865.01l-91.516,54.6" fill="#ebf7f4"/><path d="M697.654-609.392H676.124l23.092-13.777h21.532l-23.093,13.777m51.86-30.94,11.053-19.439h0l23.98-14.307-11.053,19.44-23.979,14.305m115.494-68.9H843.478l23.093-13.776H888.1L865.01-709.234" fill="#f9ffff"/><path d="M553.392-523.328h-.845L563.165-542l112.958-67.388h21.531L553.392-523.328" fill="#ebf7f4"/><path d="M690.389-481.908H624.664v7.485c22.217,7.58,44.12,16.057,65.725,25.239v-32.724" fill="#00b7b2"/><path d="M624.664-474.423v62.873c0,8.86,14.712,16.045,32.863,16.045s32.863-7.185,32.863-16.045v-37.635c-21.605-9.181-43.508-17.659-65.725-25.239" fill="#67e5d3"/><path d="M1160.91-379.882c-4.364-7.841-12.665-12.6-20.879-16.213a149.967,149.967,0,0,0-30.955-9.652c-28.972,6.98-49.631,23.828-49.631,35.395v5.7a6.3,6.3,0,0,0,6.295,6.3h97.693c1.461-7.277,1.064-15.069-2.524-21.521" fill="#00d4bb"/><path d="M1135.863-408.992a114.382,114.382,0,0,0-26.785,3.245,149.968,149.968,0,0,1,30.955,9.652c8.213,3.617,16.515,8.372,20.879,16.213,3.588,6.452,3.985,14.244,2.524,21.521h42.548a6.3,6.3,0,0,0,6.3-6.3v-5.7c0-14.9-34.212-38.64-76.416-38.64" fill="#00b7b2"/><path d="M1382.317-652.588H1013.376L906.386-464.43h368.935l107-188.158" fill="#0088db"/><path d="M1382.317-652.586l-107,188.157H906.386l5.163,10.2h368.934L1387.477-642.39l-5.16-10.2" fill="#014ec0"/><path d="M1086.157-563.853l18.987-33.392,18.987-33.393h-95.408L990.75-563.853h95.408" fill="#c8e8e2"/><path d="M984.671-553.161l-37.977,66.787H1042.1l18.988-33.393,18.988-33.393H984.671" fill="#c8e8e2"/><path d="M1136.427-630.638l-37.973,66.785h101.22l18.987-33.392,18.987-33.393h-101.22" fill="#c8e8e2"/><path d="M1249.943-630.638l-37.974,66.785h97.222l37.979-66.785h-97.227" fill="#c8e8e2"/><path d="M1186.9-519.768l18.988-33.393h97.222l-37.973,66.787h-97.224l18.987-33.393m25.067-44.085,37.975-66.785h97.226l-37.979,66.785h-97.222m6.691-33.392-18.987,33.392h-101.22l37.973-66.785h101.22l-18.987,33.393m-94.529-33.393-18.987,33.393-18.987,33.392H990.75l37.973-66.785h95.408M1042.1-486.375H946.694l37.977-66.787h95.406l-18.988,33.393L1042.1-486.375m113.517,0H1054.4l37.974-66.787h101.221l-37.976,66.787m209.925-154.954H1022.505l-46.647,82.038-47.54,83.605h343.036l50.132-88.168,44.056-77.476" fill="#eff"/><path d="M1303.113-553.161H1205.89L1186.9-519.768l-18.987,33.393h97.224l37.973-66.787" fill="#c8e8e2"/><path d="M1092.373-553.161,1054.4-486.375h101.22l37.976-66.787H1092.373" fill="#c8e8e2"/><path d="M1002.383-563.853H990.75l19.913-35.023h0l53.243-31.763h50.424l-111.946,66.785" fill="#ebf7f4"/><path d="M966.168-542.247l9.691-17.044,16.2-28.484,18.608-11.1L990.75-563.853h11.633l-36.215,21.607m148.161-88.392h-50.424l17.919-10.691h50.425l-17.92,10.691" fill="#f9ffff"/><path d="M1321.487-563.853h0l4.817-8.472h0l-4.817,8.472" fill="#a1d3f2"/><path d="M1271.356-475.685H1164.315l17.92-10.689h82.905l37.973-66.786h-8.931l32.123-19.164-4.817,8.472L1300.418-526.8l-29.062,51.115" fill="#f9ffff"/><path d="M1265.14-486.375h-82.905l111.948-66.787h8.931l-37.973,66.787" fill="#ebf7f4"/><path d="M1040.256-563.853h-16.707l94.748-56.524-8.577,15.084h0l-69.463,41.439" fill="#ebf7f4"/><path d="M965.334-519.155l8.577-15.084,31.719-18.923h16.708l-57.005,34.008" fill="#ebf7f4"/><path d="M1128.327-616.393l8.1-14.245H1152.2l-23.876,14.245h0" fill="#ebf7f4"/><path d="M946.724-508.052l8.576-15.084,18.609-11.1-8.576,15.084h0l-18.608,11.1m75.613-45.109H1005.63l17.92-10.692h16.707l-17.919,10.692m87.383-52.132,8.576-15.083h0l35.119-20.952h16.709L1152.2-630.638h-15.777l-8.1,14.245-18.607,11.1" fill="#f9ffff"/><path d="M977.364-486.375H966.754L1078.7-553.161h1.376l-4.74,8.337h0l-97.973,58.449" fill="#ebf7f4"/><path d="M1107.233-563.853h-8.78l.939-1.651h0l109.177-65.133h10.611l-111.948,66.785" fill="#ebf7f4"/><path d="M959.446-475.685H948.834l17.92-10.689h10.611l-17.919,10.689m115.892-69.139,4.74-8.337H1078.7l20.691-12.343-.939,1.651h8.78l-31.9,19.029m143.844-85.814H1208.57l17.919-10.691H1237.1l-17.92,10.691" fill="#f9ffff"/><path d="M1042.1-486.375h-3.755l5.683-3.392h0l-1.929,3.393" fill="#ebf7f4"/><path d="M1037.135-475.685h-16.709l17.921-10.689h3.755l1.929-3.393,18.607-11.1-8.239,14.493h.656l-17.92,10.689" fill="#f9ffff"/><path d="M1184.921-563.853h-16.707l47.608-28.4-8.577,15.084-22.324,13.317" fill="#ebf7f4"/><path d="M1225.854-588.272l8.577-15.084,45.729-27.283h16.708l-71.015,42.367" fill="#ebf7f4"/><path d="M1167-553.161h-16.708l17.92-10.692h16.707L1167-553.161m40.243-24.009,8.576-15.084h0l18.608-11.1-8.576,15.084h0l-18.608,11.1h0m89.624-53.468h-16.708l17.921-10.691h16.708l-17.921,10.691" fill="#f9ffff"/><path d="M1055.055-486.375h-.656l8.241-14.495,87.654-52.292H1167l-111.948,66.787" fill="#ebf7f4"/><path d="M1161.364-454.234h-51v5.808c17.241,5.884,34.239,12.46,51,19.585v-25.393" fill="#00b7b2"/><path d="M1110.36-448.426v48.789c0,6.877,11.417,12.452,25.5,12.452s25.5-5.575,25.5-12.452v-29.2c-16.765-7.125-33.763-13.7-51-19.585" fill="#67e5d3"/><path d="M1340.917-358.36H1125.568c-7.233-5.889-14.352-13.856-18.015-22.433s-3.617-19.22,2.1-26.592c4.2-5.417,10.764-8.4,15.853-12.989,7.169-6.464,11.031-15.707,16.311-23.787s13.365-15.679,23.012-15.379c7.639.236,14.372,5.4,21.977,6.145,11.3,1.1,20.895-7.477,31.171-12.3,17.335-8.139,37.78-5.589,56.2-.345,28.844,8.211,57.188,23.884,72.212,49.841,10.453,18.072,6.933,41.031-5.467,57.839" fill="url(#e)"/><path d="M1340.917-358.36H1125.568c-7.233-5.889-14.352-13.856-18.015-22.433s-3.617-19.22,2.1-26.592c4.2-5.417,10.764-8.4,15.853-12.989,7.169-6.464,11.031-15.707,16.311-23.787s13.365-15.679,23.012-15.379c7.639.236,14.372,5.4,21.977,6.145,11.3,1.1,20.895-7.477,31.171-12.3,17.335-8.139,37.78-5.589,56.2-.345,28.844,8.211,57.188,23.884,72.212,49.841,10.453,18.072,6.933,41.031-5.467,57.839Z" fill="url(#f)"/></g></svg>