<svg xmlns="http://www.w3.org/2000/svg" xmlns:xlink="http://www.w3.org/1999/xlink" width="1174.955" height="483.275" viewBox="0 0 1174.955 483.275"><defs><linearGradient id="a" x1="6.017" y1="2.072" x2="6.016" y2="2.072" gradientUnits="objectBoundingBox"><stop offset="0" stop-color="#7bb3fe"/><stop offset="1" stop-color="#9178ff"/></linearGradient><linearGradient id="b" x1="0.5" x2="0.5" y2="1" gradientUnits="objectBoundingBox"><stop offset="0" stop-color="#7bb3fe"/><stop offset="1" stop-color="#8e7ffe"/></linearGradient><linearGradient id="c" x1="1.712" y1="2.608" x2="1.711" y2="2.608" xlink:href="#a"/><linearGradient id="d" x1="0.5" x2="0.5" y2="1" gradientUnits="objectBoundingBox"><stop offset="0" stop-color="#7bb3fe"/><stop offset="1" stop-color="#8c84fe"/></linearGradient><linearGradient id="e" x1="5.465" y1="4.184" x2="5.464" y2="4.184" gradientUnits="objectBoundingBox"><stop offset="0" stop-color="#7c8a9e"/><stop offset="1" stop-color="#9178ff"/></linearGradient><linearGradient id="f" x1="0.5" x2="0.5" y2="1" gradientUnits="objectBoundingBox"><stop offset="0" stop-color="#74b0fc"/><stop offset="1" stop-color="#8c8ffe"/></linearGradient></defs><g transform="translate(259.587)"><path d="M995.651-435.452c12.147,0,22.4-5.912,33.832-7.911v-21.067H963.049c-1.044,14.663,13.419,26.856,28.068,28.7a36.4,36.4,0,0,0,4.535.281m76.97-4.085a45.368,45.368,0,0,0,5.789-.359c14.107-1.808,28.305-9.065,34.748-21.743q.7-1.382,1.267-2.791h-77.444v20.411c5.967,0,11.8,1.123,17.683,2.241s11.821,2.24,17.957,2.24m46.141-100.822c5.055-12.2,12.4-24.217,7.528-35.936-5.125-12.329-21.823-17.184-25.807-29.928-4.131-13.211,7.5-25.476,13.341-38.023,8.036-17.26,5.048-37.111.617-55.928l-21.235-37.344h10.935a114.465,114.465,0,0,0-13.952-28.389c-10.089-14.407-24.384-25.421-34.811-39.587-5.855-7.955-10.459-16.859-17.112-24.159-6.065-6.653-14.481-11.983-23.349-11.983a21.839,21.839,0,0,0-2.6.155c-12.823,1.539-21.611,14.184-24.707,26.723S985.374-789,982.7-776.363c-7.571,35.781-42.391,63.415-42.265,99.988.028,8.064,1.815,15.944,3.892,23.788h85.156v-73.569h7.5v73.569h17.967l63.814,112.228" transform="translate(-940.435 841.635)" fill="url(#a)"/><path d="M995.651-435.452c12.147,0,22.4-5.912,33.832-7.911v-21.067H963.049c-1.044,14.663,13.419,26.856,28.068,28.7a36.4,36.4,0,0,0,4.535.281m76.97-4.085a45.368,45.368,0,0,0,5.789-.359c14.107-1.808,28.305-9.065,34.748-21.743q.7-1.382,1.267-2.791h-77.444v20.411c5.967,0,11.8,1.123,17.683,2.241s11.821,2.24,17.957,2.24m46.141-100.822c5.055-12.2,12.4-24.217,7.528-35.936-5.125-12.329-21.823-17.184-25.807-29.928-4.131-13.211,7.5-25.476,13.341-38.023,8.036-17.26,5.048-37.111.617-55.928l-21.235-37.344h10.935a114.465,114.465,0,0,0-13.952-28.389c-10.089-14.407-24.384-25.421-34.811-39.587-5.855-7.955-10.459-16.859-17.112-24.159-6.065-6.653-14.481-11.983-23.349-11.983a21.839,21.839,0,0,0-2.6.155c-12.823,1.539-21.611,14.184-24.707,26.723S985.374-789,982.7-776.363c-7.571,35.781-42.391,63.415-42.265,99.988.028,8.064,1.815,15.944,3.892,23.788h85.156v-73.569h7.5v73.569h17.967l63.814,112.228" transform="translate(-940.435 841.635)" fill="url(#b)"/></g><path d="M983.655-639.9l6.26-4.129,33,50.113V-726.157h7.5v231.519l42.305-43.587,5.383,5.229-47.688,49.132v125.5h-7.5V-580.276L983.655-639.9" transform="translate(-674.282 841.635)" fill="#1e5675"/><g transform="translate(876.38 176.897)"><path d="M382.285-409.887c1.792,0,3.6-.071,5.449-.221,15.7-1.289,31.727-7.873,40.771-20.779,10.772-15.371,10.108-36.965,22.1-51.408,16.984-20.453,55.445-22.388,60.108-48.561,2.432-13.655-6.965-26.785-18.025-35.153s-24.188-13.876-34.536-23.108c-19.852-17.708-27.1-46.9-48.268-63.013-12.04-9.168-26.179-12.608-41.06-12.608-21.336,0-44.2,7.068-64.6,14.453-8.415,3.047-16.913,6.141-25.187,9.661l82.777,145.576H215.228c-10.252,26.517,10.079,57.663,36.588,68.837,12.333,5.2,24.151,6.295,36.039,6.295,4.343,0,8.693-.145,13.084-.292s8.816-.292,13.309-.292c3.575,0,7.191.092,10.864.351,19.813,1.392,37,10.263,57.173,10.263" transform="translate(-212.522 664.738)" fill="url(#c)"/><path d="M382.285-409.887c1.792,0,3.6-.071,5.449-.221,15.7-1.289,31.727-7.873,40.771-20.779,10.772-15.371,10.108-36.965,22.1-51.408,16.984-20.453,55.445-22.388,60.108-48.561,2.432-13.655-6.965-26.785-18.025-35.153s-24.188-13.876-34.536-23.108c-19.852-17.708-27.1-46.9-48.268-63.013-12.04-9.168-26.179-12.608-41.06-12.608-21.336,0-44.2,7.068-64.6,14.453-8.415,3.047-16.913,6.141-25.187,9.661l82.777,145.576H215.228c-10.252,26.517,10.079,57.663,36.588,68.837,12.333,5.2,24.151,6.295,36.039,6.295,4.343,0,8.693-.145,13.084-.292s8.816-.292,13.309-.292c3.575,0,7.191.092,10.864.351,19.813,1.392,37,10.263,57.173,10.263" transform="translate(-212.522 664.738)" fill="url(#d)"/></g><path d="M338.014-497.784l5.267-4.44,34.929,41.393v-155.73H385.1v94.248l31.207-43.1,5.576,4.037-36.783,50.8V-358.36H378.21v-91.788l-40.2-47.636" transform="translate(627.581 841.635)" fill="#215872"/><path d="M563.329-386.094c5.621-10.1,16.321-16.233,26.9-20.893a193.148,193.148,0,0,1,39.892-12.437c37.333,8.993,63.956,30.705,63.956,45.612v7.34a8.112,8.112,0,0,1-8.112,8.112H560.076c-1.883-9.377-1.372-19.42,3.253-27.733" transform="translate(134.344 841.635)" fill="#00d4bb"/><path d="M721.481-423.608A147.382,147.382,0,0,1,756-419.424a193.15,193.15,0,0,0-39.892,12.437c-10.583,4.66-21.283,10.789-26.9,20.893-4.625,8.313-5.136,18.356-3.253,27.733H631.12a8.112,8.112,0,0,1-8.112-8.112v-7.34c0-19.2,44.086-49.8,98.473-49.8" transform="translate(8.47 841.635)" fill="#00b7b2"/><path d="M361.81-737.518H837.242l137.874,242.47H499.684L361.81-737.518" transform="translate(50.551 841.635)" fill="#0088db"/><path d="M368.46-737.518l137.874,242.47H981.767l-6.652,13.14H499.684L361.81-724.378l6.651-13.14" transform="translate(43.9 841.635)" fill="#0049bf"/><path d="M519.46-623.169,494.991-666.2l-24.467-43.033H593.472l48.936,86.065H519.46" transform="translate(274.545 841.635)" fill="#c8e8e2"/><path d="M536.7-609.392l48.939,86.064H462.691l-24.469-43.033-24.469-43.031H536.7" transform="translate(388.086 841.635)" fill="#c8e8e2"/><path d="M739.758-709.234l48.935,86.065H658.254L633.788-666.2l-24.469-43.033h130.44" transform="translate(-10.535 841.635)" fill="#c8e8e2"/><path d="M880.889-709.234l48.934,86.065H804.537L755.6-709.234H880.889" transform="translate(-297.949 841.635)" fill="#c8e8e2"/><path d="M620.277-566.361l-24.471-43.031H470.522l48.935,86.064H644.745l-24.468-43.033m-32.3-56.808-48.935-86.065H413.752l48.935,86.065H587.973M579.352-666.2l24.467,43.032H734.257l-48.935-86.065H554.883L579.352-666.2m121.816-43.033L725.634-666.2,750.1-623.169H873.051l-48.936-86.065H701.168M806.875-523.328H929.823l-48.939-86.064H757.937l24.469,43.031,24.469,43.033m-146.285,0H791.029l-48.937-86.064H611.652l48.938,86.064M390.074-723.01H832.127l60.112,105.72L953.5-509.551H511.445l-64.6-113.618L390.074-723.01" transform="translate(43.901 841.635)" fill="#eff"/><path d="M698.83-609.392H824.115l24.471,43.031,24.468,43.033H747.765L698.83-609.392" transform="translate(-184.407 841.635)" fill="#c8e8e2"/><path d="M682.986-609.392l48.937,86.064H601.485l-48.939-86.064h130.44" transform="translate(103.006 841.635)" fill="#c8e8e2"/><path d="M451.336-595.328l-12.488-21.963,12.488,21.963h0" transform="translate(497.292 841.635)" fill="#a1d3f2"/><path d="M614.786-623.169h14.992L604.116-668.3l-68.61-40.932H470.524l144.262,86.065" transform="translate(287.174 841.635)" fill="#ebf7f4"/><path d="M652.87-595.328l-12.488-21.963L619.512-654,595.532-668.3l25.663,45.133H606.2l46.668,27.841M461.94-709.234h64.981L503.829-723.01H438.848l23.092,13.776" transform="translate(295.758 841.635)" fill="#f9ffff"/><path d="M765-509.551h0L700.4-623.169l-6.208-10.919h0l6.208,10.92,27.151,47.748L765-509.551" transform="translate(-209.657 841.635)" fill="#a1d3f2"/><path d="M765-509.551H902.942L879.85-523.328H773.014L724.08-609.392h11.508l-41.4-24.7,6.208,10.92L765-509.551" transform="translate(-209.657 841.635)" fill="#f9ffff"/><path d="M766.218-523.328H873.054L728.792-609.392H717.284l48.935,86.064" transform="translate(-202.861 841.635)" fill="#ebf7f4"/><path d="M613.358-623.169h21.531l-122.1-72.841,11.052,19.439h0l89.513,53.4" transform="translate(239.796 841.635)" fill="#ebf7f4"/><path d="M511.231-565.568l-11.055-19.44L459.3-609.392H437.771l73.46,43.824" transform="translate(438.475 841.635)" fill="#ebf7f4"/><path d="M678.585-690.876l-10.439-18.359H647.814l30.769,18.357h0" transform="translate(61.077 841.635)" fill="#ebf7f4"/><path d="M701.678-551.261l-7.328-12.887-3.727-6.555-23.979-14.305,11.053,19.44,23.98,14.307m-97.44-58.13H625.77l-23.093-13.777H581.147l23.092,13.777m-112.606-67.18L480.58-696.01h0l-45.259-27H413.791l23.093,13.776h20.332l10.439,18.359,23.979,14.3" transform="translate(272.007 841.635)" fill="#f9ffff"/><path d="M571.965-523.328h13.673L441.376-609.392H439.6l6.109,10.743h0l126.253,75.32" transform="translate(362.235 841.635)" fill="#ebf7f4"/><path d="M753.581-623.169h11.313l-1.211-2.131L622.992-709.234H609.319l144.262,86.065" transform="translate(13.264 841.635)" fill="#ebf7f4"/><path d="M774.313-509.551h13.675l-23.093-13.777H751.221l23.092,13.777m-149.345-89.1-6.109-10.743h1.773L593.968-625.3l1.211,2.131H583.865l41.1,24.521M439.6-709.234h13.673L430.184-723.01H416.51L439.6-709.234" transform="translate(182.98 841.635)" fill="#f9ffff"/><path d="M534.347-523.328h4.839l-7.324-4.369,2.485,4.369" transform="translate(316.43 841.635)" fill="#ebf7f4"/><path d="M541.635-509.551h21.531l-23.093-13.777h-4.839l-2.485-4.369h0L508.768-542l10.619,18.676h-.845l23.093,13.777" transform="translate(315.543 841.635)" fill="#f9ffff"/><path d="M739.036-623.169h21.532l-61.352-36.6,11.053,19.439,28.767,17.163" transform="translate(-72.306 841.635)" fill="#ebf7f4"/><path d="M865.01-654.637l-11.053-19.44-58.93-35.157H773.494l91.516,54.6" transform="translate(-251.027 841.635)" fill="#ebf7f4"/><path d="M866.571-609.392H888.1L865.01-623.169H843.478l23.093,13.777m-51.86-30.94L803.658-659.77h0l-23.98-14.307,11.053,19.44,23.979,14.305m-115.494-68.9h21.532L697.654-723.01H676.124l23.092,13.776" transform="translate(-176.749 841.635)" fill="#f9ffff"/><path d="M696.809-523.328h.845L687.036-542,574.077-609.392H552.547l144.262,86.064" transform="translate(137.276 841.635)" fill="#ebf7f4"/><path d="M624.664-481.908h65.725v7.485c-22.217,7.58-44.12,16.057-65.725,25.239v-32.724" transform="translate(72.424 841.635)" fill="#00b7b2"/><path d="M690.389-474.423v62.873c0,8.86-14.712,16.045-32.863,16.045s-32.863-7.185-32.863-16.045v-37.635c21.605-9.181,43.508-17.659,65.725-25.239" transform="translate(72.424 841.635)" fill="#67e5d3"/><path d="M1062.765-379.882c4.364-7.841,12.665-12.6,20.879-16.213a149.967,149.967,0,0,1,30.955-9.652c28.972,6.98,49.631,23.828,49.631,35.395v5.7a6.3,6.3,0,0,1-6.295,6.3h-97.693c-1.461-7.277-1.064-15.069,2.524-21.521" transform="translate(-836.199 841.635)" fill="#00d4bb"/><path d="M1185.493-408.992a114.382,114.382,0,0,1,26.785,3.245,149.968,149.968,0,0,0-30.955,9.652c-8.213,3.617-16.515,8.372-20.879,16.213-3.588,6.452-3.985,14.244-2.524,21.521h-42.548a6.3,6.3,0,0,1-6.3-6.3v-5.7c0-14.9,34.212-38.64,76.416-38.64" transform="translate(-933.879 841.635)" fill="#00b7b2"/><path d="M906.386-652.588h368.941l106.99,188.158H1013.382l-107-188.158" transform="translate(-901.226 841.635)" fill="#0088db"/><path d="M911.546-652.586l107,188.157h368.935l-5.163,10.2H1013.38L906.386-642.39l5.16-10.2" transform="translate(-906.386 841.635)" fill="#014ec0"/><path d="M1028.723-563.853l-18.987-33.392L990.75-630.638h95.408l37.973,66.785h-95.408" transform="translate(-727.404 841.635)" fill="#c8e8e2"/><path d="M1042.1-553.161l37.977,66.787H984.669l-18.988-33.393-18.988-33.393H1042.1" transform="translate(-639.294 841.635)" fill="#c8e8e2"/><path d="M1199.673-630.638l37.973,66.785h-101.22l-18.987-33.392-18.987-33.393h101.22" transform="translate(-948.623 841.635)" fill="#c8e8e2"/><path d="M1309.2-630.638l37.974,66.785h-97.222l-37.979-66.785H1309.2" transform="translate(-1171.662 841.635)" fill="#c8e8e2"/><path d="M1106.96-519.768l-18.988-33.393H990.75l37.973,66.787h97.224l-18.987-33.393m-25.067-44.085-37.975-66.785H946.692l37.979,66.785h97.222m-6.691-33.392,18.987,33.392h101.22l-37.973-66.785h-101.22l18.987,33.393m94.529-33.393,18.987,33.393,18.987,33.392h95.408l-37.973-66.785h-95.408m82.029,144.264h95.408l-37.977-66.787h-95.406l18.988,33.393,18.988,33.393m-113.517,0h101.22l-37.974-66.787H1100.268l37.976,66.787M928.319-641.329h343.038L1318-559.291l47.54,83.605H1022.507l-50.132-88.168-44.056-77.476" transform="translate(-906.386 841.635)" fill="#eff"/><path d="M1167.916-553.161h97.222l18.988,33.393,18.987,33.393h-97.224l-37.973-66.787" transform="translate(-1083.552 841.635)" fill="#c8e8e2"/><path d="M1155.62-553.161l37.975,66.787h-101.22L1054.4-553.161H1155.62" transform="translate(-860.516 841.635)" fill="#c8e8e2"/><path d="M1102.7-563.853h11.633l-19.913-35.023h0l-53.243-31.763H990.75L1102.7-563.853" transform="translate(-717.602 841.635)" fill="#ebf7f4"/><path d="M1132.249-542.247l-9.691-17.044-16.2-28.484-18.608-11.1,19.913,35.023h-11.633l36.214,21.607M984.088-630.638h50.424l-17.919-10.691H966.168l17.92,10.691" transform="translate(-710.941 841.635)" fill="#f9ffff"/><path d="M1326.3-563.853h0l-4.817-8.472h0l4.817,8.472" transform="translate(-1260.315 841.635)" fill="#a1d3f2"/><path d="M1219.264-475.685H1326.3l-17.92-10.689H1225.48l-37.973-66.786h8.931l-32.123-19.164,4.817,8.472L1190.2-526.8l29.063,51.115" transform="translate(-1103.143 841.635)" fill="#f9ffff"/><path d="M1220.208-486.375h82.905l-111.948-66.787h-8.931l37.973,66.787" transform="translate(-1097.871 841.635)" fill="#ebf7f4"/><path d="M1101.591-563.853H1118.3l-94.748-56.524,8.577,15.084h0l69.463,41.439" transform="translate(-754.37 841.635)" fill="#ebf7f4"/><path d="M1022.336-519.155l-8.577-15.084L982.04-553.161H965.332l57.005,34.008" transform="translate(-600.193 841.635)" fill="#ebf7f4"/><path d="M1152.2-616.393l-8.1-14.245h-15.777l23.876,14.245h0" transform="translate(-893.054 841.635)" fill="#ebf7f4"/><path d="M1170.125-508.052l-8.576-15.084-18.609-11.1,8.576,15.084h0l18.608,11.1m-75.613-45.109h16.708l-17.92-10.692h-16.707l17.919,10.692m-87.383-52.132-8.576-15.083h0l-35.119-20.952H946.724l17.921,10.691h15.777l8.1,14.245,18.607,11.1" transform="translate(-729.373 841.635)" fill="#f9ffff"/><path d="M1069.467-486.375h10.611L968.13-553.161h-1.376l4.74,8.337h0l97.973,58.449" transform="translate(-659.354 841.635)" fill="#ebf7f4"/><path d="M1210.4-563.853h8.78l-.939-1.651h0l-109.177-65.133h-10.611L1210.4-563.853" transform="translate(-930.158 841.635)" fill="#ebf7f4"/><path d="M1226.489-475.685H1237.1l-17.92-10.689H1208.57l17.919,10.689M1110.6-544.824l-4.74-8.337h1.376L1086.542-565.5l.939,1.651h-8.78l31.9,19.029M966.754-630.638h10.611l-17.919-10.691H948.834l17.92,10.691" transform="translate(-798.458 841.635)" fill="#f9ffff"/><path d="M1040.276-486.375h3.755l-5.683-3.392h0l1.929,3.393" transform="translate(-694.901 841.635)" fill="#ebf7f4"/><path d="M1045.928-475.685h16.709l-17.921-10.689h-3.755l-1.929-3.393-18.607-11.1,8.239,14.493h-.656l17.92,10.689" transform="translate(-695.586 841.635)" fill="#f9ffff"/><path d="M1199.116-563.853h16.707l-47.608-28.4,8.577,15.084,22.324,13.317" transform="translate(-996.56 841.635)" fill="#ebf7f4"/><path d="M1296.868-588.272l-8.577-15.084-45.729-27.283h-16.708l71.015,42.367" transform="translate(-1135.246 841.635)" fill="#ebf7f4"/><path d="M1298.083-553.161h16.708l-17.92-10.692h-16.707l17.919,10.692m-40.243-24.009-8.576-15.084h0l-18.608-11.1,8.576,15.084h0l18.608,11.1h0m-89.624-53.468h16.708L1167-641.329h-16.708l17.921,10.691" transform="translate(-1077.608 841.635)" fill="#f9ffff"/><path d="M1166.347-486.375H1167l-8.241-14.495-87.654-52.292H1054.4l111.948,66.787" transform="translate(-833.925 841.635)" fill="#ebf7f4"/><path d="M1110.36-454.234h51v5.808c-17.241,5.884-34.239,12.46-51,19.585v-25.393" transform="translate(-884.247 841.635)" fill="#00b7b2"/><path d="M1161.364-448.426v48.789c0,6.877-11.417,12.452-25.5,12.452s-25.5-5.575-25.5-12.452v-29.2c16.765-7.125,33.763-13.7,51-19.585" transform="translate(-884.247 841.635)" fill="#67e5d3"/><g transform="translate(34.93 370.716)"><path d="M1116.669-358.36h215.349c7.233-5.889,14.352-13.856,18.015-22.433s3.617-19.22-2.1-26.592c-4.2-5.417-10.764-8.4-15.853-12.989-7.169-6.464-11.031-15.707-16.311-23.787s-13.365-15.679-23.012-15.379c-7.639.236-14.372,5.4-21.977,6.145-11.3,1.1-20.895-7.477-31.171-12.3-17.335-8.139-37.78-5.589-56.2-.345-28.844,8.211-57.188,23.884-72.212,49.841-10.453,18.072-6.933,41.031,5.467,57.839" transform="translate(-1105.039 470.919)" fill="url(#e)"/><path d="M1116.669-358.36h215.349c7.233-5.889,14.352-13.856,18.015-22.433s3.617-19.22-2.1-26.592c-4.2-5.417-10.764-8.4-15.853-12.989-7.169-6.464-11.031-15.707-16.311-23.787s-13.365-15.679-23.012-15.379c-7.639.236-14.372,5.4-21.977,6.145-11.3,1.1-20.895-7.477-31.171-12.3-17.335-8.139-37.78-5.589-56.2-.345-28.844,8.211-57.188,23.884-72.212,49.841-10.453,18.072-6.933,41.031,5.467,57.839Z" transform="translate(-1105.039 470.919)" fill="url(#f)"/></g></svg>