<svg xmlns="http://www.w3.org/2000/svg" xmlns:xlink="http://www.w3.org/1999/xlink" width="362" height="149" viewBox="0 0 362 149"><defs><clipPath id="a"><rect width="362" height="149" opacity="0.61" fill="#fff" stroke="#707070" stroke-width="1" transform="translate(13)"/></clipPath><linearGradient id="b" x1="0.933" y1="0.706" x2="-0.052" y2="0.81" gradientUnits="objectBoundingBox"><stop offset="0" stop-color="#e6f9ff"/><stop offset="1" stop-color="#8d83fe"/></linearGradient></defs><g transform="translate(-13)" clip-path="url(#a)"><g transform="translate(-773 -528)"><path d="M167.078,89.193c36.61-33.734,24.757-77.987,64.37-87.89S282.2,40.3,304.988,68.791s32.917,56.916,66.09,84.768c47.337,45.048,74.011,53.736,101.757,105.224,29.945,55.57,42.384,115.579,12.713,170.59s-104.268,49.039-131.4,49.456c-11.991.184-51.112-4.465-85.233,9.582-42.208,17.376-105.036,84.636-156.164,94.27S20.566,565.7,3.249,522.214,43.485,408.746,43.485,408.746s27.2-34,32.427-84.727S65.646,224.385,64.4,205.819s-7.1-42.738,19.268-67.276S130.467,122.927,167.078,89.193Z" transform="matrix(-0.358, -0.934, 0.934, -0.358, 876.9, 796.693)" fill="url(#b)"/></g></g></svg>