<svg xmlns="http://www.w3.org/2000/svg" xmlns:xlink="http://www.w3.org/1999/xlink" width="609" height="522" viewBox="0 0 609 522"><defs><clipPath id="a"><rect width="609" height="522" transform="translate(1529 1724)" fill="#fff" stroke="#707070" stroke-width="1"/></clipPath><clipPath id="b"><path d="M345.294,456.185c-81.12,14.365-178.749,68.055-271.7,21.58S7.261,393.688,4.3,283.415-18.511,98.36,61.764,36.675s138.58-34.223,263.64,0,190.97,66.333,236.6,136.89-54.08,145.34-54.08,145.34S426.415,441.82,345.294,456.185Z" transform="translate(0 0)" fill="#8d83fe" stroke="#707070" stroke-width="1"/></clipPath><linearGradient id="c" x1="0.664" y1="0.89" x2="0.121" y2="0.075" gradientUnits="objectBoundingBox"><stop offset="0" stop-color="#8d83fe"/><stop offset="1" stop-color="#5fc6f5"/></linearGradient></defs><g transform="translate(-1529 -1724)" clip-path="url(#a)"><g transform="matrix(0.839, 0.545, -0.545, 0.839, 1758.458, 1659)" clip-path="url(#b)"><g transform="translate(13.995 -9.815)"><path d="M252,480a4,4,0,1,1,4,4A4,4,0,0,1,252,480Zm-28,0a4,4,0,1,1,4,4A4,4,0,0,1,224,480Zm-28,0a4,4,0,1,1,4,4A4,4,0,0,1,196,480Zm-28,0a4,4,0,1,1,4,4A4,4,0,0,1,168,480Zm-28,0a4,4,0,1,1,4,4A4,4,0,0,1,140,480Zm-28,0a4,4,0,1,1,4,4A4,4,0,0,1,112,480Zm-28,0a4,4,0,1,1,4,4A4,4,0,0,1,84,480Zm-28,0a4,4,0,1,1,4,4A4,4,0,0,1,56,480Zm-28,0a4,4,0,1,1,4,4A4,4,0,0,1,28,480Zm308-28a4,4,0,1,1,4,4A4,4,0,0,1,336,452Zm-28,0a4,4,0,1,1,4,4A4,4,0,0,1,308,452Zm-28,0a4,4,0,1,1,4,4A4,4,0,0,1,280,452Zm-28,0a4,4,0,1,1,4,4A4,4,0,0,1,252,452Zm-28,0a4,4,0,1,1,4,4A4,4,0,0,1,224,452Zm-28,0a4,4,0,1,1,4,4A4,4,0,0,1,196,452Zm-28,0a4,4,0,1,1,4,4A4,4,0,0,1,168,452Zm-28,0a4,4,0,1,1,4,4A4,4,0,0,1,140,452Zm-28,0a4,4,0,1,1,4,4A4,4,0,0,1,112,452Zm-28,0a4,4,0,1,1,4,4A4,4,0,0,1,84,452Zm-28,0a4,4,0,1,1,4,4A4,4,0,0,1,56,452Zm-28,0a4,4,0,1,1,4,4A4,4,0,0,1,28,452ZM0,452a4,4,0,1,1,4,4A4,4,0,0,1,0,452Zm392-28a4,4,0,1,1,4,4A4,4,0,0,1,392,424Zm-28,0a4,4,0,1,1,4,4A4,4,0,0,1,364,424Zm-28,0a4,4,0,1,1,4,4A4,4,0,0,1,336,424Zm-28,0a4,4,0,1,1,4,4A4,4,0,0,1,308,424Zm-28,0a4,4,0,1,1,4,4A4,4,0,0,1,280,424Zm-28,0a4,4,0,1,1,4,4A4,4,0,0,1,252,424Zm-28,0a4,4,0,1,1,4,4A4,4,0,0,1,224,424Zm-28,0a4,4,0,1,1,4,4A4,4,0,0,1,196,424Zm-28,0a4,4,0,1,1,4,4A4,4,0,0,1,168,424Zm-28,0a4,4,0,1,1,4,4A4,4,0,0,1,140,424Zm-28,0a4,4,0,1,1,4,4A4,4,0,0,1,112,424Zm-28,0a4,4,0,1,1,4,4A4,4,0,0,1,84,424Zm-28,0a4,4,0,1,1,4,4A4,4,0,0,1,56,424Zm-28,0a4,4,0,1,1,4,4A4,4,0,0,1,28,424ZM0,424a4,4,0,1,1,4,4A4,4,0,0,1,0,424Zm420-28a4,4,0,1,1,4,4A4,4,0,0,1,420,396Zm-28,0a4,4,0,1,1,4,4A4,4,0,0,1,392,396Zm-28,0a4,4,0,1,1,4,4A4,4,0,0,1,364,396Zm-28,0a4,4,0,1,1,4,4A4,4,0,0,1,336,396Zm-28,0a4,4,0,1,1,4,4A4,4,0,0,1,308,396Zm-28,0a4,4,0,1,1,4,4A4,4,0,0,1,280,396Zm-28,0a4,4,0,1,1,4,4A4,4,0,0,1,252,396Zm-28,0a4,4,0,1,1,4,4A4,4,0,0,1,224,396Zm-28,0a4,4,0,1,1,4,4A4,4,0,0,1,196,396Zm-28,0a4,4,0,1,1,4,4A4,4,0,0,1,168,396Zm-28,0a4,4,0,1,1,4,4A4,4,0,0,1,140,396Zm-28,0a4,4,0,1,1,4,4A4,4,0,0,1,112,396Zm-28,0a4,4,0,1,1,4,4A4,4,0,0,1,84,396Zm-28,0a4,4,0,1,1,4,4A4,4,0,0,1,56,396Zm-28,0a4,4,0,1,1,4,4A4,4,0,0,1,28,396ZM0,396a4,4,0,1,1,4,4A4,4,0,0,1,0,396Zm448-28a4,4,0,1,1,4,4A4,4,0,0,1,448,368Zm-28,0a4,4,0,1,1,4,4A4,4,0,0,1,420,368Zm-28,0a4,4,0,1,1,4,4A4,4,0,0,1,392,368Zm-28,0a4,4,0,1,1,4,4A4,4,0,0,1,364,368Zm-28,0a4,4,0,1,1,4,4A4,4,0,0,1,336,368Zm-28,0a4,4,0,1,1,4,4A4,4,0,0,1,308,368Zm-28,0a4,4,0,1,1,4,4A4,4,0,0,1,280,368Zm-28,0a4,4,0,1,1,4,4A4,4,0,0,1,252,368Zm-28,0a4,4,0,1,1,4,4A4,4,0,0,1,224,368Zm-28,0a4,4,0,1,1,4,4A4,4,0,0,1,196,368Zm-28,0a4,4,0,1,1,4,4A4,4,0,0,1,168,368Zm-28,0a4,4,0,1,1,4,4A4,4,0,0,1,140,368Zm-28,0a4,4,0,1,1,4,4A4,4,0,0,1,112,368Zm-28,0a4,4,0,1,1,4,4A4,4,0,0,1,84,368Zm-28,0a4,4,0,1,1,4,4A4,4,0,0,1,56,368Zm-28,0a4,4,0,1,1,4,4A4,4,0,0,1,28,368ZM0,368a4,4,0,1,1,4,4A4,4,0,0,1,0,368Zm476-28a4,4,0,1,1,4,4A4,4,0,0,1,476,340Zm-28,0a4,4,0,1,1,4,4A4,4,0,0,1,448,340Zm-28,0a4,4,0,1,1,4,4A4,4,0,0,1,420,340Zm-28,0a4,4,0,1,1,4,4A4,4,0,0,1,392,340Zm-28,0a4,4,0,1,1,4,4A4,4,0,0,1,364,340Zm-28,0a4,4,0,1,1,4,4A4,4,0,0,1,336,340Zm-28,0a4,4,0,1,1,4,4A4,4,0,0,1,308,340Zm-28,0a4,4,0,1,1,4,4A4,4,0,0,1,280,340Zm-28,0a4,4,0,1,1,4,4A4,4,0,0,1,252,340Zm-28,0a4,4,0,1,1,4,4A4,4,0,0,1,224,340Zm-28,0a4,4,0,1,1,4,4A4,4,0,0,1,196,340Zm-28,0a4,4,0,1,1,4,4A4,4,0,0,1,168,340Zm-28,0a4,4,0,1,1,4,4A4,4,0,0,1,140,340Zm-28,0a4,4,0,1,1,4,4A4,4,0,0,1,112,340Zm-28,0a4,4,0,1,1,4,4A4,4,0,0,1,84,340Zm-28,0a4,4,0,1,1,4,4A4,4,0,0,1,56,340Zm-28,0a4,4,0,1,1,4,4A4,4,0,0,1,28,340Zm476-28a4,4,0,1,1,4,4A4,4,0,0,1,504,312Zm-28,0a4,4,0,1,1,4,4A4,4,0,0,1,476,312Zm-28,0a4,4,0,1,1,4,4A4,4,0,0,1,448,312Zm-28,0a4,4,0,1,1,4,4A4,4,0,0,1,420,312Zm-28,0a4,4,0,1,1,4,4A4,4,0,0,1,392,312Zm-28,0a4,4,0,1,1,4,4A4,4,0,0,1,364,312Zm-28,0a4,4,0,1,1,4,4A4,4,0,0,1,336,312Zm-28,0a4,4,0,1,1,4,4A4,4,0,0,1,308,312Zm-28,0a4,4,0,1,1,4,4A4,4,0,0,1,280,312Zm-28,0a4,4,0,1,1,4,4A4,4,0,0,1,252,312Zm-28,0a4,4,0,1,1,4,4A4,4,0,0,1,224,312Zm-28,0a4,4,0,1,1,4,4A4,4,0,0,1,196,312Zm-28,0a4,4,0,1,1,4,4A4,4,0,0,1,168,312Zm-28,0a4,4,0,1,1,4,4A4,4,0,0,1,140,312Zm-28,0a4,4,0,1,1,4,4A4,4,0,0,1,112,312Zm-28,0a4,4,0,1,1,4,4A4,4,0,0,1,84,312Zm-28,0a4,4,0,1,1,4,4A4,4,0,0,1,56,312Zm-28,0a4,4,0,1,1,4,4A4,4,0,0,1,28,312Zm504-28a4,4,0,1,1,4,4A4,4,0,0,1,532,284Zm-28,0a4,4,0,1,1,4,4A4,4,0,0,1,504,284Zm-28,0a4,4,0,1,1,4,4A4,4,0,0,1,476,284Zm-28,0a4,4,0,1,1,4,4A4,4,0,0,1,448,284Zm-28,0a4,4,0,1,1,4,4A4,4,0,0,1,420,284Zm-28,0a4,4,0,1,1,4,4A4,4,0,0,1,392,284Zm-28,0a4,4,0,1,1,4,4A4,4,0,0,1,364,284Zm-28,0a4,4,0,1,1,4,4A4,4,0,0,1,336,284Zm-28,0a4,4,0,1,1,4,4A4,4,0,0,1,308,284Zm-28,0a4,4,0,1,1,4,4A4,4,0,0,1,280,284Zm-28,0a4,4,0,1,1,4,4A4,4,0,0,1,252,284Zm-28,0a4,4,0,1,1,4,4A4,4,0,0,1,224,284Zm-28,0a4,4,0,1,1,4,4A4,4,0,0,1,196,284Zm-28,0a4,4,0,1,1,4,4A4,4,0,0,1,168,284Zm-28,0a4,4,0,1,1,4,4A4,4,0,0,1,140,284Zm-28,0a4,4,0,1,1,4,4A4,4,0,0,1,112,284Zm-28,0a4,4,0,1,1,4,4A4,4,0,0,1,84,284Zm-28,0a4,4,0,1,1,4,4A4,4,0,0,1,56,284Zm476-28a4,4,0,1,1,4,4A4,4,0,0,1,532,256Zm-28,0a4,4,0,1,1,4,4A4,4,0,0,1,504,256Zm-28,0a4,4,0,1,1,4,4A4,4,0,0,1,476,256Zm-28,0a4,4,0,1,1,4,4A4,4,0,0,1,448,256Zm-28,0a4,4,0,1,1,4,4A4,4,0,0,1,420,256Zm-28,0a4,4,0,1,1,4,4A4,4,0,0,1,392,256Zm-28,0a4,4,0,1,1,4,4A4,4,0,0,1,364,256Zm-28,0a4,4,0,1,1,4,4A4,4,0,0,1,336,256Zm-28,0a4,4,0,1,1,4,4A4,4,0,0,1,308,256Zm-28,0a4,4,0,1,1,4,4A4,4,0,0,1,280,256Zm-28,0a4,4,0,1,1,4,4A4,4,0,0,1,252,256Zm-28,0a4,4,0,1,1,4,4A4,4,0,0,1,224,256Zm-28,0a4,4,0,1,1,4,4A4,4,0,0,1,196,256Zm-28,0a4,4,0,1,1,4,4A4,4,0,0,1,168,256Zm-28,0a4,4,0,1,1,4,4A4,4,0,0,1,140,256Zm-28,0a4,4,0,1,1,4,4A4,4,0,0,1,112,256Zm-28,0a4,4,0,1,1,4,4A4,4,0,0,1,84,256Zm-28,0a4,4,0,1,1,4,4A4,4,0,0,1,56,256Zm504-28a4,4,0,1,1,4,4A4,4,0,0,1,560,228Zm-28,0a4,4,0,1,1,4,4A4,4,0,0,1,532,228Zm-28,0a4,4,0,1,1,4,4A4,4,0,0,1,504,228Zm-28,0a4,4,0,1,1,4,4A4,4,0,0,1,476,228Zm-28,0a4,4,0,1,1,4,4A4,4,0,0,1,448,228Zm-28,0a4,4,0,1,1,4,4A4,4,0,0,1,420,228Zm-28,0a4,4,0,1,1,4,4A4,4,0,0,1,392,228Zm-28,0a4,4,0,1,1,4,4A4,4,0,0,1,364,228Zm-28,0a4,4,0,1,1,4,4A4,4,0,0,1,336,228Zm-28,0a4,4,0,1,1,4,4A4,4,0,0,1,308,228Zm-28,0a4,4,0,1,1,4,4A4,4,0,0,1,280,228Zm-28,0a4,4,0,1,1,4,4A4,4,0,0,1,252,228Zm-28,0a4,4,0,1,1,4,4A4,4,0,0,1,224,228Zm-28,0a4,4,0,1,1,4,4A4,4,0,0,1,196,228Zm-28,0a4,4,0,1,1,4,4A4,4,0,0,1,168,228Zm-28,0a4,4,0,1,1,4,4A4,4,0,0,1,140,228Zm-28,0a4,4,0,1,1,4,4A4,4,0,0,1,112,228Zm-28,0a4,4,0,1,1,4,4A4,4,0,0,1,84,228Zm-28,0a4,4,0,1,1,4,4A4,4,0,0,1,56,228Zm-28,0a4,4,0,1,1,4,4A4,4,0,0,1,28,228Zm532-28a4,4,0,1,1,4,4A4,4,0,0,1,560,200Zm-28,0a4,4,0,1,1,4,4A4,4,0,0,1,532,200Zm-28,0a4,4,0,1,1,4,4A4,4,0,0,1,504,200Zm-28,0a4,4,0,1,1,4,4A4,4,0,0,1,476,200Zm-28,0a4,4,0,1,1,4,4A4,4,0,0,1,448,200Zm-28,0a4,4,0,1,1,4,4A4,4,0,0,1,420,200Zm-28,0a4,4,0,1,1,4,4A4,4,0,0,1,392,200Zm-28,0a4,4,0,1,1,4,4A4,4,0,0,1,364,200Zm-28,0a4,4,0,1,1,4,4A4,4,0,0,1,336,200Zm-28,0a4,4,0,1,1,4,4A4,4,0,0,1,308,200Zm-28,0a4,4,0,1,1,4,4A4,4,0,0,1,280,200Zm-28,0a4,4,0,1,1,4,4A4,4,0,0,1,252,200Zm-28,0a4,4,0,1,1,4,4A4,4,0,0,1,224,200Zm-28,0a4,4,0,1,1,4,4A4,4,0,0,1,196,200Zm-28,0a4,4,0,1,1,4,4A4,4,0,0,1,168,200Zm-28,0a4,4,0,1,1,4,4A4,4,0,0,1,140,200Zm-28,0a4,4,0,1,1,4,4A4,4,0,0,1,112,200Zm-28,0a4,4,0,1,1,4,4A4,4,0,0,1,84,200Zm-28,0a4,4,0,1,1,4,4A4,4,0,0,1,56,200Zm-28,0a4,4,0,1,1,4,4A4,4,0,0,1,28,200Zm504-28a4,4,0,1,1,4,4A4,4,0,0,1,532,172Zm-28,0a4,4,0,1,1,4,4A4,4,0,0,1,504,172Zm-28,0a4,4,0,1,1,4,4A4,4,0,0,1,476,172Zm-28,0a4,4,0,1,1,4,4A4,4,0,0,1,448,172Zm-28,0a4,4,0,1,1,4,4A4,4,0,0,1,420,172Zm-28,0a4,4,0,1,1,4,4A4,4,0,0,1,392,172Zm-28,0a4,4,0,1,1,4,4A4,4,0,0,1,364,172Zm-28,0a4,4,0,1,1,4,4A4,4,0,0,1,336,172Zm-28,0a4,4,0,1,1,4,4A4,4,0,0,1,308,172Zm-28,0a4,4,0,1,1,4,4A4,4,0,0,1,280,172Zm-28,0a4,4,0,1,1,4,4A4,4,0,0,1,252,172Zm-28,0a4,4,0,1,1,4,4A4,4,0,0,1,224,172Zm-28,0a4,4,0,1,1,4,4A4,4,0,0,1,196,172Zm-28,0a4,4,0,1,1,4,4A4,4,0,0,1,168,172Zm-28,0a4,4,0,1,1,4,4A4,4,0,0,1,140,172Zm-28,0a4,4,0,1,1,4,4A4,4,0,0,1,112,172Zm-28,0a4,4,0,1,1,4,4A4,4,0,0,1,84,172Zm-28,0a4,4,0,1,1,4,4A4,4,0,0,1,56,172Zm-28,0a4,4,0,1,1,4,4A4,4,0,0,1,28,172ZM0,172a4,4,0,1,1,4,4A4,4,0,0,1,0,172Zm504-28a4,4,0,1,1,4,4A4,4,0,0,1,504,144Zm-28,0a4,4,0,1,1,4,4A4,4,0,0,1,476,144Zm-28,0a4,4,0,1,1,4,4A4,4,0,0,1,448,144Zm-28,0a4,4,0,1,1,4,4A4,4,0,0,1,420,144Zm-28,0a4,4,0,1,1,4,4A4,4,0,0,1,392,144Zm-28,0a4,4,0,1,1,4,4A4,4,0,0,1,364,144Zm-28,0a4,4,0,1,1,4,4A4,4,0,0,1,336,144Zm-28,0a4,4,0,1,1,4,4A4,4,0,0,1,308,144Zm-28,0a4,4,0,1,1,4,4A4,4,0,0,1,280,144Zm-28,0a4,4,0,1,1,4,4A4,4,0,0,1,252,144Zm-28,0a4,4,0,1,1,4,4A4,4,0,0,1,224,144Zm-28,0a4,4,0,1,1,4,4A4,4,0,0,1,196,144Zm-28,0a4,4,0,1,1,4,4A4,4,0,0,1,168,144Zm-28,0a4,4,0,1,1,4,4A4,4,0,0,1,140,144Zm-28,0a4,4,0,1,1,4,4A4,4,0,0,1,112,144Zm-28,0a4,4,0,1,1,4,4A4,4,0,0,1,84,144Zm-28,0a4,4,0,1,1,4,4A4,4,0,0,1,56,144Zm-28,0a4,4,0,1,1,4,4A4,4,0,0,1,28,144ZM0,144a4,4,0,1,1,4,4A4,4,0,0,1,0,144Zm476-28a4,4,0,1,1,4,4A4,4,0,0,1,476,116Zm-28,0a4,4,0,1,1,4,4A4,4,0,0,1,448,116Zm-28,0a4,4,0,1,1,4,4A4,4,0,0,1,420,116Zm-28,0a4,4,0,1,1,4,4A4,4,0,0,1,392,116Zm-28,0a4,4,0,1,1,4,4A4,4,0,0,1,364,116Zm-28,0a4,4,0,1,1,4,4A4,4,0,0,1,336,116Zm-28,0a4,4,0,1,1,4,4A4,4,0,0,1,308,116Zm-28,0a4,4,0,1,1,4,4A4,4,0,0,1,280,116Zm-28,0a4,4,0,1,1,4,4A4,4,0,0,1,252,116Zm-28,0a4,4,0,1,1,4,4A4,4,0,0,1,224,116Zm-28,0a4,4,0,1,1,4,4A4,4,0,0,1,196,116Zm-28,0a4,4,0,1,1,4,4A4,4,0,0,1,168,116Zm-28,0a4,4,0,1,1,4,4A4,4,0,0,1,140,116Zm-28,0a4,4,0,1,1,4,4A4,4,0,0,1,112,116Zm-28,0a4,4,0,1,1,4,4A4,4,0,0,1,84,116Zm-28,0a4,4,0,1,1,4,4A4,4,0,0,1,56,116Zm-28,0a4,4,0,1,1,4,4A4,4,0,0,1,28,116ZM0,116a4,4,0,1,1,4,4A4,4,0,0,1,0,116ZM420,88a4,4,0,1,1,4,4A4,4,0,0,1,420,88Zm-28,0a4,4,0,1,1,4,4A4,4,0,0,1,392,88Zm-28,0a4,4,0,1,1,4,4A4,4,0,0,1,364,88Zm-28,0a4,4,0,1,1,4,4A4,4,0,0,1,336,88Zm-28,0a4,4,0,1,1,4,4A4,4,0,0,1,308,88Zm-28,0a4,4,0,1,1,4,4A4,4,0,0,1,280,88Zm-28,0a4,4,0,1,1,4,4A4,4,0,0,1,252,88Zm-28,0a4,4,0,1,1,4,4A4,4,0,0,1,224,88Zm-28,0a4,4,0,1,1,4,4A4,4,0,0,1,196,88Zm-28,0a4,4,0,1,1,4,4A4,4,0,0,1,168,88Zm-28,0a4,4,0,1,1,4,4A4,4,0,0,1,140,88Zm-28,0a4,4,0,1,1,4,4A4,4,0,0,1,112,88ZM84,88a4,4,0,1,1,4,4A4,4,0,0,1,84,88ZM56,88a4,4,0,1,1,4,4A4,4,0,0,1,56,88ZM28,88a4,4,0,1,1,4,4A4,4,0,0,1,28,88ZM364,60a4,4,0,1,1,4,4A4,4,0,0,1,364,60Zm-28,0a4,4,0,1,1,4,4A4,4,0,0,1,336,60Zm-28,0a4,4,0,1,1,4,4A4,4,0,0,1,308,60Zm-28,0a4,4,0,1,1,4,4A4,4,0,0,1,280,60Zm-28,0a4,4,0,1,1,4,4A4,4,0,0,1,252,60Zm-28,0a4,4,0,1,1,4,4A4,4,0,0,1,224,60Zm-28,0a4,4,0,1,1,4,4A4,4,0,0,1,196,60Zm-28,0a4,4,0,1,1,4,4A4,4,0,0,1,168,60Zm-28,0a4,4,0,1,1,4,4A4,4,0,0,1,140,60Zm-28,0a4,4,0,1,1,4,4A4,4,0,0,1,112,60ZM84,60a4,4,0,1,1,4,4A4,4,0,0,1,84,60ZM56,60a4,4,0,1,1,4,4A4,4,0,0,1,56,60ZM252,32a4,4,0,1,1,4,4A4,4,0,0,1,252,32Zm-28,0a4,4,0,1,1,4,4A4,4,0,0,1,224,32Zm-28,0a4,4,0,1,1,4,4A4,4,0,0,1,196,32Zm-28,0a4,4,0,1,1,4,4A4,4,0,0,1,168,32Zm-28,0a4,4,0,1,1,4,4A4,4,0,0,1,140,32Zm-28,0a4,4,0,1,1,4,4A4,4,0,0,1,112,32ZM84,32a4,4,0,1,1,4,4A4,4,0,0,1,84,32ZM56,32a4,4,0,1,1,4,4A4,4,0,0,1,56,32ZM140,4a4,4,0,1,1,4,4A4,4,0,0,1,140,4ZM112,4a4,4,0,1,1,4,4A4,4,0,0,1,112,4Z" transform="translate(0)" fill="url(#c)"/></g></g></g></svg>