<svg xmlns="http://www.w3.org/2000/svg" xmlns:xlink="http://www.w3.org/1999/xlink" width="596" height="604" viewBox="0 0 596 604"><defs><clipPath id="a"><rect width="596" height="604" transform="translate(9 -140)" fill="red" opacity="0.41"/></clipPath><linearGradient id="b" x1="0.154" y1="0.524" x2="0.791" y2="0.768" gradientUnits="objectBoundingBox"><stop offset="0" stop-color="#e6f9ff"/><stop offset="1" stop-color="#5fc6f5"/></linearGradient></defs><g transform="translate(-9 140)" clip-path="url(#a)"><path d="M188.181,100.458c41.234-37.995,27.884-87.837,72.5-98.991S317.844,45.386,343.51,77.48s37.075,64.1,74.438,95.475c53.316,50.737,83.359,60.523,114.609,118.514,33.727,62.589,47.737,130.177,14.319,192.136s-117.438,55.233-147.994,55.7c-13.505.207-57.567-5.029-96,10.792C255.345,569.67,184.581,645.425,127,656.276S23.164,637.149,3.659,588.173s45.318-127.8,45.318-127.8S79.608,422.083,85.5,364.944,73.937,252.726,72.539,231.815s-8-48.136,21.7-75.773S146.946,138.453,188.181,100.458Z" transform="translate(-60.004 303.399) rotate(-74)" fill="url(#b)"/></g></svg>