<svg xmlns="http://www.w3.org/2000/svg" xmlns:xlink="http://www.w3.org/1999/xlink" width="1166" height="923" viewBox="0 0 1166 923"><defs><clipPath id="a"><rect width="1166" height="923" transform="translate(-704 1740)" fill="#fff"/></clipPath><linearGradient id="b" x1="0.933" y1="0.706" x2="-0.052" y2="0.81" gradientUnits="objectBoundingBox"><stop offset="0" stop-color="#e6f9ff"/><stop offset="1" stop-color="#8d83fe"/></linearGradient></defs><g transform="translate(704 -1740)" clip-path="url(#a)"><path d="M323.135,172.5C393.94,107.259,371.016,21.672,447.628,2.519s98.158,75.415,142.23,130.525,63.663,110.077,127.821,163.944c91.551,87.123,143.14,103.927,196.8,203.507,57.915,107.475,81.972,223.533,24.587,329.927s-201.658,94.844-254.127,95.649c-23.19.356-98.852-8.636-164.843,18.532-81.631,33.607-203.143,163.689-302.026,182.321S39.776,1094.08,6.283,1009.981,84.1,790.528,84.1,790.528s52.6-65.748,62.714-163.865-19.854-192.7-22.254-228.6-13.733-82.656,37.266-130.113S252.328,237.744,323.135,172.5Z" transform="translate(-633.23 2808.802) rotate(-99)" fill="url(#b)"/></g></svg>