<svg xmlns="http://www.w3.org/2000/svg" xmlns:xlink="http://www.w3.org/1999/xlink" width="279" height="247" viewBox="0 0 279 247"><defs><clipPath id="a"><rect width="279" height="247" transform="translate(52 3514)" fill="#a43333"/></clipPath><clipPath id="b"><path d="M174,232.9c-40.509,7.164-93.728,37.735-140.145,14.557S3.626,196.34,2.15,141.345-9.244,49.054,30.844,18.291s69.2-17.068,131.655,0S256.366,46.421,279.152,81.61s-18.595,78.1-18.595,78.1S214.505,225.74,174,232.9Z" transform="translate(0 0)" fill="#8d83fe" stroke="#707070" stroke-width="1"/></clipPath></defs><g transform="translate(-52 -3514)" clip-path="url(#a)"><g transform="matrix(-0.996, 0.087, -0.087, -0.996, 341.224, 3759.026)" clip-path="url(#b)"><g transform="translate(6.989 -4.895)"><path d="M83.9,253.35a2,2,0,1,1,2,1.995A2,2,0,0,1,83.9,253.35Zm-13.982,0a2,2,0,1,1,2,1.995A2,2,0,0,1,69.913,253.35Zm-13.983,0a2,2,0,1,1,2,1.995A2,2,0,0,1,55.93,253.35Zm83.9-13.964a2,2,0,1,1,2,1.995A2,2,0,0,1,139.825,239.386Zm-13.982,0a2,2,0,1,1,2,1.995A2,2,0,0,1,125.842,239.386Zm-13.982,0a2,2,0,1,1,2,1.995A2,2,0,0,1,111.86,239.386Zm-13.982,0a2,2,0,1,1,2,1.995A2,2,0,0,1,97.878,239.386Zm-13.982,0a2,2,0,1,1,2,1.995A2,2,0,0,1,83.9,239.386Zm-13.982,0a2,2,0,1,1,2,1.995A2,2,0,0,1,69.913,239.386Zm-13.983,0a2,2,0,1,1,2,1.995A2,2,0,0,1,55.93,239.386Zm-13.982,0a2,2,0,1,1,2,1.995A2,2,0,0,1,41.947,239.386Zm-13.982,0a2,2,0,1,1,2,1.995A2,2,0,0,1,27.965,239.386Zm-13.982,0a2,2,0,1,1,2,1.995A2,2,0,0,1,13.982,239.386Zm167.79-13.964a2,2,0,1,1,2,1.995A2,2,0,0,1,181.772,225.422Zm-13.982,0a2,2,0,1,1,2,1.995A2,2,0,0,1,167.79,225.422Zm-13.982,0a2,2,0,1,1,2,1.995A2,2,0,0,1,153.807,225.422Zm-13.982,0a2,2,0,1,1,2,1.995A2,2,0,0,1,139.825,225.422Zm-13.982,0a2,2,0,1,1,2,1.995A2,2,0,0,1,125.842,225.422Zm-13.982,0a2,2,0,1,1,2,1.995A2,2,0,0,1,111.86,225.422Zm-13.982,0a2,2,0,1,1,2,1.995A2,2,0,0,1,97.878,225.422Zm-13.982,0a2,2,0,1,1,2,1.995A2,2,0,0,1,83.9,225.422Zm-13.982,0a2,2,0,1,1,2,1.995A2,2,0,0,1,69.913,225.422Zm-13.983,0a2,2,0,1,1,2,1.995A2,2,0,0,1,55.93,225.422Zm-13.982,0a2,2,0,1,1,2,1.995A2,2,0,0,1,41.947,225.422Zm-13.982,0a2,2,0,1,1,2,1.995A2,2,0,0,1,27.965,225.422Zm-13.982,0a2,2,0,1,1,2,1.995A2,2,0,0,1,13.982,225.422ZM0,225.422a2,2,0,1,1,2,1.995A2,2,0,0,1,0,225.422Zm195.755-13.964a2,2,0,1,1,2,1.995A2,2,0,0,1,195.755,211.458Zm-13.983,0a2,2,0,1,1,2,1.995A2,2,0,0,1,181.772,211.458Zm-13.982,0a2,2,0,1,1,2,1.995A2,2,0,0,1,167.79,211.458Zm-13.982,0a2,2,0,1,1,2,1.995A2,2,0,0,1,153.807,211.458Zm-13.982,0a2,2,0,1,1,2,1.995A2,2,0,0,1,139.825,211.458Zm-13.982,0a2,2,0,1,1,2,1.995A2,2,0,0,1,125.842,211.458Zm-13.982,0a2,2,0,1,1,2,1.995A2,2,0,0,1,111.86,211.458Zm-13.982,0a2,2,0,1,1,2,1.995A2,2,0,0,1,97.878,211.458Zm-13.982,0a2,2,0,1,1,2,1.995A2,2,0,0,1,83.9,211.458Zm-13.982,0a2,2,0,1,1,2,1.995A2,2,0,0,1,69.913,211.458Zm-13.983,0a2,2,0,1,1,2,1.995A2,2,0,0,1,55.93,211.458Zm-13.982,0a2,2,0,1,1,2,1.995A2,2,0,0,1,41.947,211.458Zm-13.982,0a2,2,0,1,1,2,1.995A2,2,0,0,1,27.965,211.458Zm-13.982,0a2,2,0,1,1,2,1.995A2,2,0,0,1,13.982,211.458ZM0,211.458a2,2,0,1,1,2,1.995A2,2,0,0,1,0,211.458Zm209.738-13.965a2,2,0,1,1,2,2A2,2,0,0,1,209.738,197.493Zm-13.982,0a2,2,0,1,1,2,2A2,2,0,0,1,195.755,197.493Zm-13.982,0a2,2,0,1,1,2,2A2,2,0,0,1,181.773,197.493Zm-13.983,0a2,2,0,1,1,2,2A2,2,0,0,1,167.79,197.493Zm-13.982,0a2,2,0,1,1,2,2A2,2,0,0,1,153.807,197.493Zm-13.982,0a2,2,0,1,1,2,2A2,2,0,0,1,139.825,197.493Zm-13.982,0a2,2,0,1,1,2,2A2,2,0,0,1,125.842,197.493Zm-13.982,0a2,2,0,1,1,2,2A2,2,0,0,1,111.86,197.493Zm-13.982,0a2,2,0,1,1,2,2A2,2,0,0,1,97.878,197.493Zm-13.982,0a2,2,0,1,1,2,2A2,2,0,0,1,83.9,197.493Zm-13.982,0a2,2,0,1,1,2,2A2,2,0,0,1,69.913,197.493Zm-13.983,0a2,2,0,1,1,2,2A2,2,0,0,1,55.93,197.493Zm-13.982,0a2,2,0,1,1,2,2A2,2,0,0,1,41.947,197.493Zm-13.982,0a2,2,0,1,1,2,2A2,2,0,0,1,27.965,197.493Zm-13.982,0a2,2,0,1,1,2,2A2,2,0,0,1,13.982,197.493ZM0,197.493a2,2,0,1,1,2,2A2,2,0,0,1,0,197.493Zm223.72-13.964a2,2,0,1,1,2,2A2,2,0,0,1,223.72,183.529Zm-13.982,0a2,2,0,1,1,2,2A2,2,0,0,1,209.738,183.529Zm-13.982,0a2,2,0,1,1,2,2A2,2,0,0,1,195.755,183.529Zm-13.982,0a2,2,0,1,1,2,2A2,2,0,0,1,181.773,183.529Zm-13.983,0a2,2,0,1,1,2,2A2,2,0,0,1,167.79,183.529Zm-13.982,0a2,2,0,1,1,2,2A2,2,0,0,1,153.807,183.529Zm-13.982,0a2,2,0,1,1,2,2A2,2,0,0,1,139.825,183.529Zm-13.982,0a2,2,0,1,1,2,2A2,2,0,0,1,125.842,183.529Zm-13.982,0a2,2,0,1,1,2,2A2,2,0,0,1,111.86,183.529Zm-13.982,0a2,2,0,1,1,2,2A2,2,0,0,1,97.878,183.529Zm-13.982,0a2,2,0,1,1,2,2A2,2,0,0,1,83.9,183.529Zm-13.982,0a2,2,0,1,1,2,2A2,2,0,0,1,69.913,183.529Zm-13.983,0a2,2,0,1,1,2,2A2,2,0,0,1,55.93,183.529Zm-13.982,0a2,2,0,1,1,2,2A2,2,0,0,1,41.947,183.529Zm-13.982,0a2,2,0,1,1,2,2A2,2,0,0,1,27.965,183.529Zm-13.982,0a2,2,0,1,1,2,2A2,2,0,0,1,13.982,183.529ZM0,183.529a2,2,0,1,1,2,2A2,2,0,0,1,0,183.529Zm237.7-13.964a2,2,0,1,1,2,2A2,2,0,0,1,237.7,169.565Zm-13.982,0a2,2,0,1,1,2,2A2,2,0,0,1,223.72,169.565Zm-13.982,0a2,2,0,1,1,2,2A2,2,0,0,1,209.738,169.565Zm-13.982,0a2,2,0,1,1,2,2A2,2,0,0,1,195.755,169.565Zm-13.982,0a2,2,0,1,1,2,2A2,2,0,0,1,181.773,169.565Zm-13.983,0a2,2,0,1,1,2,2A2,2,0,0,1,167.79,169.565Zm-13.982,0a2,2,0,1,1,2,2A2,2,0,0,1,153.807,169.565Zm-13.982,0a2,2,0,1,1,2,2A2,2,0,0,1,139.825,169.565Zm-13.982,0a2,2,0,1,1,2,2A2,2,0,0,1,125.842,169.565Zm-13.982,0a2,2,0,1,1,2,2A2,2,0,0,1,111.86,169.565Zm-13.982,0a2,2,0,1,1,2,2A2,2,0,0,1,97.878,169.565Zm-13.982,0a2,2,0,1,1,2,2A2,2,0,0,1,83.9,169.565Zm-13.982,0a2,2,0,1,1,2,2A2,2,0,0,1,69.913,169.565Zm-13.983,0a2,2,0,1,1,2,2A2,2,0,0,1,55.93,169.565Zm-13.982,0a2,2,0,1,1,2,2A2,2,0,0,1,41.947,169.565Zm-13.982,0a2,2,0,1,1,2,2A2,2,0,0,1,27.965,169.565Zm-13.982,0a2,2,0,1,1,2,2A2,2,0,0,1,13.982,169.565Zm237.7-13.964a2,2,0,1,1,2,2A2,2,0,0,1,251.685,155.6Zm-13.982,0a2,2,0,1,1,2,2A2,2,0,0,1,237.7,155.6Zm-13.982,0a2,2,0,1,1,2,2A2,2,0,0,1,223.72,155.6Zm-13.982,0a2,2,0,1,1,2,2A2,2,0,0,1,209.738,155.6Zm-13.982,0a2,2,0,1,1,2,2A2,2,0,0,1,195.755,155.6Zm-13.982,0a2,2,0,1,1,2,2A2,2,0,0,1,181.773,155.6Zm-13.983,0a2,2,0,1,1,2,2A2,2,0,0,1,167.79,155.6Zm-13.982,0a2,2,0,1,1,2,2A2,2,0,0,1,153.807,155.6Zm-13.982,0a2,2,0,1,1,2,2A2,2,0,0,1,139.825,155.6Zm-13.982,0a2,2,0,1,1,2,2A2,2,0,0,1,125.842,155.6Zm-13.982,0a2,2,0,1,1,2,2A2,2,0,0,1,111.86,155.6Zm-13.982,0a2,2,0,1,1,2,2A2,2,0,0,1,97.878,155.6Zm-13.982,0a2,2,0,1,1,2,2A2,2,0,0,1,83.9,155.6Zm-13.982,0a2,2,0,1,1,2,2A2,2,0,0,1,69.913,155.6Zm-13.983,0a2,2,0,1,1,2,2A2,2,0,0,1,55.93,155.6Zm-13.982,0a2,2,0,1,1,2,2A2,2,0,0,1,41.947,155.6Zm-13.982,0a2,2,0,1,1,2,2A2,2,0,0,1,27.965,155.6Zm-13.982,0a2,2,0,1,1,2,2A2,2,0,0,1,13.982,155.6Zm251.685-13.964a2,2,0,1,1,2,1.995A2,2,0,0,1,265.667,141.636Zm-13.982,0a2,2,0,1,1,2,1.995A2,2,0,0,1,251.685,141.636Zm-13.982,0a2,2,0,1,1,2,1.995A2,2,0,0,1,237.7,141.636Zm-13.982,0a2,2,0,1,1,2,1.995A2,2,0,0,1,223.72,141.636Zm-13.982,0a2,2,0,1,1,2,1.995A2,2,0,0,1,209.738,141.636Zm-13.982,0a2,2,0,1,1,2,1.995A2,2,0,0,1,195.755,141.636Zm-13.982,0a2,2,0,1,1,2,1.995A2,2,0,0,1,181.773,141.636Zm-13.983,0a2,2,0,1,1,2,1.995A2,2,0,0,1,167.79,141.636Zm-13.982,0a2,2,0,1,1,2,1.995A2,2,0,0,1,153.807,141.636Zm-13.982,0a2,2,0,1,1,2,1.995A2,2,0,0,1,139.825,141.636Zm-13.982,0a2,2,0,1,1,2,1.995A2,2,0,0,1,125.842,141.636Zm-13.982,0a2,2,0,1,1,2,1.995A2,2,0,0,1,111.86,141.636Zm-13.982,0a2,2,0,1,1,2,1.995A2,2,0,0,1,97.878,141.636Zm-13.982,0a2,2,0,1,1,2,1.995A2,2,0,0,1,83.9,141.636Zm-13.982,0a2,2,0,1,1,2,1.995A2,2,0,0,1,69.913,141.636Zm-13.982,0a2,2,0,1,1,2,1.995A2,2,0,0,1,55.93,141.636Zm-13.983,0a2,2,0,1,1,2,1.995A2,2,0,0,1,41.947,141.636Zm-13.982,0a2,2,0,1,1,2,1.995A2,2,0,0,1,27.965,141.636Zm237.7-13.964a2,2,0,1,1,2,1.995A2,2,0,0,1,265.667,127.672Zm-13.982,0a2,2,0,1,1,2,1.995A2,2,0,0,1,251.685,127.672Zm-13.982,0a2,2,0,1,1,2,1.995A2,2,0,0,1,237.7,127.672Zm-13.982,0a2,2,0,1,1,2,1.995A2,2,0,0,1,223.72,127.672Zm-13.982,0a2,2,0,1,1,2,1.995A2,2,0,0,1,209.738,127.672Zm-13.982,0a2,2,0,1,1,2,1.995A2,2,0,0,1,195.755,127.672Zm-13.982,0a2,2,0,1,1,2,1.995A2,2,0,0,1,181.773,127.672Zm-13.983,0a2,2,0,1,1,2,1.995A2,2,0,0,1,167.79,127.672Zm-13.982,0a2,2,0,1,1,2,1.995A2,2,0,0,1,153.807,127.672Zm-13.982,0a2,2,0,1,1,2,1.995A2,2,0,0,1,139.825,127.672Zm-13.982,0a2,2,0,1,1,2,1.995A2,2,0,0,1,125.842,127.672Zm-13.982,0a2,2,0,1,1,2,1.995A2,2,0,0,1,111.86,127.672Zm-13.982,0a2,2,0,1,1,2,1.995A2,2,0,0,1,97.878,127.672Zm-13.982,0a2,2,0,1,1,2,1.995A2,2,0,0,1,83.9,127.672Zm-13.982,0a2,2,0,1,1,2,1.995A2,2,0,0,1,69.913,127.672Zm-13.982,0a2,2,0,1,1,2,1.995A2,2,0,0,1,55.93,127.672Zm-13.983,0a2,2,0,1,1,2,1.995A2,2,0,0,1,41.947,127.672Zm-13.982,0a2,2,0,1,1,2,1.995A2,2,0,0,1,27.965,127.672ZM279.65,113.708a2,2,0,1,1,2,1.995A2,2,0,0,1,279.65,113.708Zm-13.982,0a2,2,0,1,1,2,1.995A2,2,0,0,1,265.667,113.708Zm-13.982,0a2,2,0,1,1,2,1.995A2,2,0,0,1,251.685,113.708Zm-13.982,0a2,2,0,1,1,2,1.995A2,2,0,0,1,237.7,113.708Zm-13.982,0a2,2,0,1,1,2,1.995A2,2,0,0,1,223.72,113.708Zm-13.982,0a2,2,0,1,1,2,1.995A2,2,0,0,1,209.738,113.708Zm-13.982,0a2,2,0,1,1,2,1.995A2,2,0,0,1,195.755,113.708Zm-13.982,0a2,2,0,1,1,2,1.995A2,2,0,0,1,181.773,113.708Zm-13.983,0a2,2,0,1,1,2,1.995A2,2,0,0,1,167.79,113.708Zm-13.982,0a2,2,0,1,1,2,1.995A2,2,0,0,1,153.807,113.708Zm-13.982,0a2,2,0,1,1,2,1.995A2,2,0,0,1,139.825,113.708Zm-13.982,0a2,2,0,1,1,2,1.995A2,2,0,0,1,125.842,113.708Zm-13.982,0a2,2,0,1,1,2,1.995A2,2,0,0,1,111.86,113.708Zm-13.982,0a2,2,0,1,1,2,1.995A2,2,0,0,1,97.878,113.708Zm-13.982,0a2,2,0,1,1,2,1.995A2,2,0,0,1,83.9,113.708Zm-13.982,0a2,2,0,1,1,2,1.995A2,2,0,0,1,69.913,113.708Zm-13.982,0a2,2,0,1,1,2,1.995A2,2,0,0,1,55.93,113.708Zm-13.983,0a2,2,0,1,1,2,1.995A2,2,0,0,1,41.947,113.708Zm-13.982,0a2,2,0,1,1,2,1.995A2,2,0,0,1,27.965,113.708Zm-13.982,0a2,2,0,1,1,2,1.995A2,2,0,0,1,13.982,113.708ZM279.65,99.744a2,2,0,1,1,2,1.995A2,2,0,0,1,279.65,99.744Zm-13.982,0a2,2,0,1,1,2,1.995A2,2,0,0,1,265.667,99.744Zm-13.982,0a2,2,0,1,1,2,1.995A2,2,0,0,1,251.685,99.744Zm-13.982,0a2,2,0,1,1,2,1.995A2,2,0,0,1,237.7,99.744Zm-13.982,0a2,2,0,1,1,2,1.995A2,2,0,0,1,223.72,99.744Zm-13.982,0a2,2,0,1,1,2,1.995A2,2,0,0,1,209.738,99.744Zm-13.982,0a2,2,0,1,1,2,1.995A2,2,0,0,1,195.755,99.744Zm-13.982,0a2,2,0,1,1,2,1.995A2,2,0,0,1,181.773,99.744Zm-13.983,0a2,2,0,1,1,2,1.995A2,2,0,0,1,167.79,99.744Zm-13.982,0a2,2,0,1,1,2,1.995A2,2,0,0,1,153.807,99.744Zm-13.982,0a2,2,0,1,1,2,1.995A2,2,0,0,1,139.825,99.744Zm-13.982,0a2,2,0,1,1,2,1.995A2,2,0,0,1,125.842,99.744Zm-13.982,0a2,2,0,1,1,2,1.995A2,2,0,0,1,111.86,99.744Zm-13.982,0a2,2,0,1,1,2,1.995A2,2,0,0,1,97.878,99.744Zm-13.982,0a2,2,0,1,1,2,1.995A2,2,0,0,1,83.9,99.744Zm-13.982,0a2,2,0,1,1,2,1.995A2,2,0,0,1,69.913,99.744Zm-13.982,0a2,2,0,1,1,2,1.995A2,2,0,0,1,55.93,99.744Zm-13.983,0a2,2,0,1,1,2,1.995A2,2,0,0,1,41.947,99.744Zm-13.982,0a2,2,0,1,1,2,1.995A2,2,0,0,1,27.965,99.744Zm-13.982,0a2,2,0,1,1,2,1.995A2,2,0,0,1,13.982,99.744ZM265.667,85.78a2,2,0,1,1,2,1.995A2,2,0,0,1,265.667,85.78Zm-13.982,0a2,2,0,1,1,2,1.995A2,2,0,0,1,251.685,85.78Zm-13.982,0a2,2,0,1,1,2,1.995A2,2,0,0,1,237.7,85.78Zm-13.982,0a2,2,0,1,1,2,1.995A2,2,0,0,1,223.72,85.78Zm-13.982,0a2,2,0,1,1,2,1.995A2,2,0,0,1,209.738,85.78Zm-13.982,0a2,2,0,1,1,2,1.995A2,2,0,0,1,195.755,85.78Zm-13.982,0a2,2,0,1,1,2,1.995A2,2,0,0,1,181.773,85.78Zm-13.983,0a2,2,0,1,1,2,1.995A2,2,0,0,1,167.79,85.78Zm-13.982,0a2,2,0,1,1,2,1.995A2,2,0,0,1,153.807,85.78Zm-13.982,0a2,2,0,1,1,2,1.995A2,2,0,0,1,139.825,85.78Zm-13.982,0a2,2,0,1,1,2,1.995A2,2,0,0,1,125.842,85.78Zm-13.982,0a2,2,0,1,1,2,1.995A2,2,0,0,1,111.86,85.78Zm-13.982,0a2,2,0,1,1,2,1.995A2,2,0,0,1,97.878,85.78Zm-13.982,0a2,2,0,1,1,2,1.995A2,2,0,0,1,83.9,85.78Zm-13.982,0a2,2,0,1,1,2,1.995A2,2,0,0,1,69.913,85.78Zm-13.982,0a2,2,0,1,1,2,1.995A2,2,0,0,1,55.93,85.78Zm-13.983,0a2,2,0,1,1,2,1.995A2,2,0,0,1,41.947,85.78Zm-13.982,0a2,2,0,1,1,2,1.995A2,2,0,0,1,27.965,85.78Zm-13.982,0a2,2,0,1,1,2,1.995A2,2,0,0,1,13.982,85.78ZM0,85.78a2,2,0,1,1,2,1.995A2,2,0,0,1,0,85.78ZM251.685,71.815a2,2,0,1,1,2,2A2,2,0,0,1,251.685,71.815Zm-13.982,0a2,2,0,1,1,2,2A2,2,0,0,1,237.7,71.815Zm-13.982,0a2,2,0,1,1,2,2A2,2,0,0,1,223.72,71.815Zm-13.982,0a2,2,0,1,1,2,2A2,2,0,0,1,209.738,71.815Zm-13.982,0a2,2,0,1,1,2,2A2,2,0,0,1,195.755,71.815Zm-13.982,0a2,2,0,1,1,2,2A2,2,0,0,1,181.773,71.815Zm-13.983,0a2,2,0,1,1,2,2A2,2,0,0,1,167.79,71.815Zm-13.982,0a2,2,0,1,1,2,2A2,2,0,0,1,153.807,71.815Zm-13.982,0a2,2,0,1,1,2,2A2,2,0,0,1,139.825,71.815Zm-13.982,0a2,2,0,1,1,2,2A2,2,0,0,1,125.842,71.815Zm-13.982,0a2,2,0,1,1,2,2A2,2,0,0,1,111.86,71.815Zm-13.982,0a2,2,0,1,1,2,2A2,2,0,0,1,97.878,71.815Zm-13.982,0a2,2,0,1,1,2,2A2,2,0,0,1,83.9,71.815Zm-13.982,0a2,2,0,1,1,2,2A2,2,0,0,1,69.913,71.815Zm-13.982,0a2,2,0,1,1,2,2A2,2,0,0,1,55.93,71.815Zm-13.983,0a2,2,0,1,1,2,2A2,2,0,0,1,41.947,71.815Zm-13.982,0a2,2,0,1,1,2,1.995A2,2,0,0,1,27.965,71.816Zm-13.982,0a2,2,0,1,1,2,1.995A2,2,0,0,1,13.982,71.816ZM0,71.816A2,2,0,1,1,2,73.81,2,2,0,0,1,0,71.816ZM237.7,57.851a2,2,0,1,1,2,2A2,2,0,0,1,237.7,57.851Zm-13.982,0a2,2,0,1,1,2,2A2,2,0,0,1,223.72,57.851Zm-13.982,0a2,2,0,1,1,2,2A2,2,0,0,1,209.738,57.851Zm-13.982,0a2,2,0,1,1,2,2A2,2,0,0,1,195.755,57.851Zm-13.982,0a2,2,0,1,1,2,2A2,2,0,0,1,181.773,57.851Zm-13.983,0a2,2,0,1,1,2,2A2,2,0,0,1,167.79,57.851Zm-13.982,0a2,2,0,1,1,2,2A2,2,0,0,1,153.807,57.851Zm-13.982,0a2,2,0,1,1,2,2A2,2,0,0,1,139.825,57.851Zm-13.982,0a2,2,0,1,1,2,2A2,2,0,0,1,125.842,57.851Zm-13.982,0a2,2,0,1,1,2,2A2,2,0,0,1,111.86,57.851Zm-13.982,0a2,2,0,1,1,2,2A2,2,0,0,1,97.878,57.851Zm-13.982,0a2,2,0,1,1,2,2A2,2,0,0,1,83.9,57.851Zm-13.982,0a2,2,0,1,1,2,2A2,2,0,0,1,69.913,57.851Zm-13.982,0a2,2,0,1,1,2,2A2,2,0,0,1,55.93,57.851Zm-13.983,0a2,2,0,1,1,2,2A2,2,0,0,1,41.947,57.851Zm-13.982,0a2,2,0,1,1,2,2A2,2,0,0,1,27.965,57.851Zm-13.982,0a2,2,0,1,1,2,2A2,2,0,0,1,13.982,57.851ZM0,57.851a2,2,0,1,1,2,2A2,2,0,0,1,0,57.851ZM209.738,43.887a2,2,0,1,1,2,2A2,2,0,0,1,209.738,43.887Zm-13.982,0a2,2,0,1,1,2,2A2,2,0,0,1,195.755,43.887Zm-13.982,0a2,2,0,1,1,2,2A2,2,0,0,1,181.773,43.887Zm-13.983,0a2,2,0,1,1,2,2A2,2,0,0,1,167.79,43.887Zm-13.982,0a2,2,0,1,1,2,2A2,2,0,0,1,153.807,43.887Zm-13.982,0a2,2,0,1,1,2,2A2,2,0,0,1,139.825,43.887Zm-13.982,0a2,2,0,1,1,2,2A2,2,0,0,1,125.842,43.887Zm-13.982,0a2,2,0,1,1,2,2A2,2,0,0,1,111.86,43.887Zm-13.982,0a2,2,0,1,1,2,2A2,2,0,0,1,97.878,43.887Zm-13.982,0a2,2,0,1,1,2,2A2,2,0,0,1,83.9,43.887Zm-13.982,0a2,2,0,1,1,2,2A2,2,0,0,1,69.913,43.887Zm-13.982,0a2,2,0,1,1,2,2A2,2,0,0,1,55.93,43.887Zm-13.983,0a2,2,0,1,1,2,2A2,2,0,0,1,41.947,43.887Zm-13.982,0a2,2,0,1,1,2,2A2,2,0,0,1,27.965,43.887Zm-13.982,0a2,2,0,1,1,2,2A2,2,0,0,1,13.982,43.887ZM0,43.887a2,2,0,1,1,2,2A2,2,0,0,1,0,43.887ZM167.79,29.923a2,2,0,1,1,2,2A2,2,0,0,1,167.79,29.923Zm-13.982,0a2,2,0,1,1,2,2A2,2,0,0,1,153.807,29.923Zm-13.982,0a2,2,0,1,1,2,2A2,2,0,0,1,139.825,29.923Zm-13.982,0a2,2,0,1,1,2,2A2,2,0,0,1,125.842,29.923Zm-13.982,0a2,2,0,1,1,2,2A2,2,0,0,1,111.86,29.923Zm-13.982,0a2,2,0,1,1,2,2A2,2,0,0,1,97.878,29.923Zm-13.982,0a2,2,0,1,1,2,2A2,2,0,0,1,83.9,29.923Zm-13.982,0a2,2,0,1,1,2,2A2,2,0,0,1,69.913,29.923Zm-13.982,0a2,2,0,1,1,2,2A2,2,0,0,1,55.93,29.923Zm-13.983,0a2,2,0,1,1,2,2A2,2,0,0,1,41.947,29.923Zm-13.982,0a2,2,0,1,1,2,2A2,2,0,0,1,27.965,29.923Zm-13.982,0a2,2,0,1,1,2,2A2,2,0,0,1,13.982,29.923ZM83.9,15.959a2,2,0,1,1,2,2A2,2,0,0,1,83.9,15.959Zm-13.982,0a2,2,0,1,1,2,2A2,2,0,0,1,69.913,15.959Zm-13.982,0a2,2,0,1,1,2,2A2,2,0,0,1,55.93,15.959Zm-13.983,0a2,2,0,1,1,2,2A2,2,0,0,1,41.947,15.959Zm-13.982,0a2,2,0,1,1,2,2A2,2,0,0,1,27.965,15.959Zm97.878,0a2,2,0,1,1,2,1.995A2,2,0,0,1,125.842,15.959Zm-13.982,0a2,2,0,1,1,2,1.995A2,2,0,0,1,111.86,15.959Zm-13.982,0a2,2,0,1,1,2,1.995A2,2,0,0,1,97.878,15.959ZM69.913,1.995a2,2,0,1,1,2,1.995A2,2,0,0,1,69.913,1.995Zm-13.982,0a2,2,0,1,1,2,1.995A2,2,0,0,1,55.93,1.995Z" transform="translate(0 0)" fill="#fff"/></g></g></g></svg>