<svg xmlns="http://www.w3.org/2000/svg" xmlns:xlink="http://www.w3.org/1999/xlink" width="463" height="388" viewBox="0 0 463 388"><defs><clipPath id="a"><rect width="463" height="388" transform="translate(122 -277)" fill="red" opacity="0.41"/></clipPath><clipPath id="b"><path d="M4486.779,208.841c-62.908-10.014-138.619-47.442-210.7-15.044s-51.44,58.611-53.734,135.484-17.693,129,44.56,172.006,107.468,23.857,204.451,0,150.241-40.973,185.626-90.159S4619.2,302.054,4619.2,302.054,4549.687,218.855,4486.779,208.841Z" transform="translate(-4103 -29)" fill="#fff" stroke="#707070" stroke-width="1"/></clipPath></defs><g transform="translate(-122 277)" clip-path="url(#a)"><g transform="matrix(-0.839, 0.545, -0.545, -0.839, 796.131, 38.751)" clip-path="url(#b)"><g transform="translate(126.858 147.774)"><ellipse cx="3.102" cy="2.788" rx="3.102" ry="2.788" transform="translate(86.855)" fill="#fff"/><ellipse cx="3.102" cy="2.788" rx="3.102" ry="2.788" transform="translate(108.569)" fill="#fff"/><ellipse cx="3.102" cy="2.788" rx="3.102" ry="2.788" transform="translate(130.283)" fill="#fff"/><ellipse cx="3.102" cy="2.788" rx="3.102" ry="2.788" transform="translate(21.714 19.519)" fill="#fff"/><ellipse cx="3.102" cy="2.788" rx="3.102" ry="2.788" transform="translate(43.428 19.519)" fill="#fff"/><ellipse cx="3.102" cy="2.788" rx="3.102" ry="2.788" transform="translate(65.141 19.519)" fill="#fff"/><ellipse cx="3.102" cy="2.788" rx="3.102" ry="2.788" transform="translate(86.855 19.519)" fill="#fff"/><ellipse cx="3.102" cy="2.788" rx="3.102" ry="2.788" transform="translate(108.569 19.519)" fill="#fff"/><ellipse cx="3.102" cy="2.788" rx="3.102" ry="2.788" transform="translate(130.283 19.519)" fill="#fff"/><ellipse cx="3.102" cy="2.788" rx="3.102" ry="2.788" transform="translate(151.996 19.519)" fill="#fff"/><ellipse cx="3.102" cy="2.788" rx="3.102" ry="2.788" transform="translate(173.71 19.519)" fill="#fff"/><ellipse cx="3.102" cy="2.788" rx="3.102" ry="2.788" transform="translate(195.424 19.519)" fill="#fff"/><ellipse cx="3.102" cy="2.788" rx="3.102" ry="2.788" transform="translate(0 39.038)" fill="#fff"/><ellipse cx="3.102" cy="2.788" rx="3.102" ry="2.788" transform="translate(21.714 39.038)" fill="#fff"/><ellipse cx="3.102" cy="2.788" rx="3.102" ry="2.788" transform="translate(43.428 39.038)" fill="#fff"/><ellipse cx="3.102" cy="2.788" rx="3.102" ry="2.788" transform="translate(65.141 39.038)" fill="#fff"/><ellipse cx="3.102" cy="2.788" rx="3.102" ry="2.788" transform="translate(86.855 39.038)" fill="#fff"/><ellipse cx="3.102" cy="2.788" rx="3.102" ry="2.788" transform="translate(108.569 39.038)" fill="#fff"/><ellipse cx="3.102" cy="2.788" rx="3.102" ry="2.788" transform="translate(130.283 39.038)" fill="#fff"/><ellipse cx="3.102" cy="2.788" rx="3.102" ry="2.788" transform="translate(151.996 39.038)" fill="#fff"/><ellipse cx="3.102" cy="2.788" rx="3.102" ry="2.788" transform="translate(173.71 39.038)" fill="#fff"/><ellipse cx="3.102" cy="2.788" rx="3.102" ry="2.788" transform="translate(195.424 39.038)" fill="#fff"/><ellipse cx="3.102" cy="2.788" rx="3.102" ry="2.788" transform="translate(217.138 39.038)" fill="#fff"/><ellipse cx="3.102" cy="2.788" rx="3.102" ry="2.788" transform="translate(238.852 39.038)" fill="#fff"/><ellipse cx="3.102" cy="2.788" rx="3.102" ry="2.788" transform="translate(260.565 39.038)" fill="#fff"/><ellipse cx="3.102" cy="2.788" rx="3.102" ry="2.788" transform="translate(0 58.558)" fill="#fff"/><ellipse cx="3.102" cy="2.788" rx="3.102" ry="2.788" transform="translate(21.714 58.558)" fill="#fff"/><ellipse cx="3.102" cy="2.788" rx="3.102" ry="2.788" transform="translate(43.428 58.558)" fill="#fff"/><ellipse cx="3.102" cy="2.788" rx="3.102" ry="2.788" transform="translate(65.141 58.558)" fill="#fff"/><ellipse cx="3.102" cy="2.788" rx="3.102" ry="2.788" transform="translate(86.855 58.558)" fill="#fff"/><ellipse cx="3.102" cy="2.788" rx="3.102" ry="2.788" transform="translate(108.569 58.558)" fill="#fff"/><ellipse cx="3.102" cy="2.788" rx="3.102" ry="2.788" transform="translate(130.283 58.558)" fill="#fff"/><ellipse cx="3.102" cy="2.788" rx="3.102" ry="2.788" transform="translate(151.996 58.558)" fill="#fff"/><ellipse cx="3.102" cy="2.788" rx="3.102" ry="2.788" transform="translate(173.71 58.558)" fill="#fff"/><ellipse cx="3.102" cy="2.788" rx="3.102" ry="2.788" transform="translate(195.424 58.558)" fill="#fff"/><ellipse cx="3.102" cy="2.788" rx="3.102" ry="2.788" transform="translate(217.138 58.558)" fill="#fff"/><ellipse cx="3.102" cy="2.788" rx="3.102" ry="2.788" transform="translate(238.852 58.558)" fill="#fff"/><ellipse cx="3.102" cy="2.788" rx="3.102" ry="2.788" transform="translate(260.565 58.558)" fill="#fff"/><ellipse cx="3.102" cy="2.788" rx="3.102" ry="2.788" transform="translate(282.279 58.558)" fill="#fff"/><ellipse cx="3.102" cy="2.788" rx="3.102" ry="2.788" transform="translate(303.993 58.558)" fill="#fff"/><ellipse cx="3.102" cy="2.788" rx="3.102" ry="2.788" transform="translate(0 78.077)" fill="#fff"/><ellipse cx="3.102" cy="2.788" rx="3.102" ry="2.788" transform="translate(21.714 78.077)" fill="#fff"/><ellipse cx="3.102" cy="2.788" rx="3.102" ry="2.788" transform="translate(43.428 78.077)" fill="#fff"/><ellipse cx="3.102" cy="2.788" rx="3.102" ry="2.788" transform="translate(65.141 78.077)" fill="#fff"/><ellipse cx="3.102" cy="2.788" rx="3.102" ry="2.788" transform="translate(86.855 78.077)" fill="#fff"/><ellipse cx="3.102" cy="2.788" rx="3.102" ry="2.788" transform="translate(108.569 78.077)" fill="#fff"/><ellipse cx="3.102" cy="2.788" rx="3.102" ry="2.788" transform="translate(130.283 78.077)" fill="#fff"/><ellipse cx="3.102" cy="2.788" rx="3.102" ry="2.788" transform="translate(151.996 78.077)" fill="#fff"/><ellipse cx="3.102" cy="2.788" rx="3.102" ry="2.788" transform="translate(173.71 78.077)" fill="#fff"/><ellipse cx="3.102" cy="2.788" rx="3.102" ry="2.788" transform="translate(195.424 78.077)" fill="#fff"/><ellipse cx="3.102" cy="2.788" rx="3.102" ry="2.788" transform="translate(217.138 78.077)" fill="#fff"/><ellipse cx="3.102" cy="2.788" rx="3.102" ry="2.788" transform="translate(238.852 78.077)" fill="#fff"/><ellipse cx="3.102" cy="2.788" rx="3.102" ry="2.788" transform="translate(260.565 78.077)" fill="#fff"/><ellipse cx="3.102" cy="2.788" rx="3.102" ry="2.788" transform="translate(282.279 78.077)" fill="#fff"/><ellipse cx="3.102" cy="2.788" rx="3.102" ry="2.788" transform="translate(303.993 78.077)" fill="#fff"/><ellipse cx="3.102" cy="2.788" rx="3.102" ry="2.788" transform="translate(325.707 78.077)" fill="#fff"/><ellipse cx="3.102" cy="2.788" rx="3.102" ry="2.788" transform="translate(0 97.596)" fill="#fff"/><ellipse cx="3.102" cy="2.788" rx="3.102" ry="2.788" transform="translate(21.714 97.596)" fill="#fff"/><ellipse cx="3.102" cy="2.788" rx="3.102" ry="2.788" transform="translate(43.428 97.596)" fill="#fff"/><ellipse cx="3.102" cy="2.788" rx="3.102" ry="2.788" transform="translate(65.141 97.596)" fill="#fff"/><ellipse cx="3.102" cy="2.788" rx="3.102" ry="2.788" transform="translate(86.855 97.596)" fill="#fff"/><ellipse cx="3.102" cy="2.788" rx="3.102" ry="2.788" transform="translate(108.569 97.596)" fill="#fff"/><ellipse cx="3.102" cy="2.788" rx="3.102" ry="2.788" transform="translate(130.283 97.596)" fill="#fff"/><ellipse cx="3.102" cy="2.788" rx="3.102" ry="2.788" transform="translate(151.996 97.596)" fill="#fff"/><ellipse cx="3.102" cy="2.788" rx="3.102" ry="2.788" transform="translate(173.71 97.596)" fill="#fff"/><ellipse cx="3.102" cy="2.788" rx="3.102" ry="2.788" transform="translate(195.424 97.596)" fill="#fff"/><ellipse cx="3.102" cy="2.788" rx="3.102" ry="2.788" transform="translate(217.138 97.596)" fill="#fff"/><ellipse cx="3.102" cy="2.788" rx="3.102" ry="2.788" transform="translate(238.852 97.596)" fill="#fff"/><ellipse cx="3.102" cy="2.788" rx="3.102" ry="2.788" transform="translate(260.565 97.596)" fill="#fff"/><ellipse cx="3.102" cy="2.788" rx="3.102" ry="2.788" transform="translate(282.279 97.596)" fill="#fff"/><ellipse cx="3.102" cy="2.788" rx="3.102" ry="2.788" transform="translate(303.993 97.596)" fill="#fff"/><ellipse cx="3.102" cy="2.788" rx="3.102" ry="2.788" transform="translate(325.707 97.596)" fill="#fff"/><ellipse cx="3.102" cy="2.788" rx="3.102" ry="2.788" transform="translate(347.42 97.596)" fill="#fff"/><ellipse cx="3.102" cy="2.788" rx="3.102" ry="2.788" transform="translate(0 117.115)" fill="#fff"/><ellipse cx="3.102" cy="2.788" rx="3.102" ry="2.788" transform="translate(21.714 117.115)" fill="#fff"/><ellipse cx="3.102" cy="2.788" rx="3.102" ry="2.788" transform="translate(43.428 117.115)" fill="#fff"/><ellipse cx="3.102" cy="2.788" rx="3.102" ry="2.788" transform="translate(65.141 117.115)" fill="#fff"/><ellipse cx="3.102" cy="2.788" rx="3.102" ry="2.788" transform="translate(86.855 117.115)" fill="#fff"/><ellipse cx="3.102" cy="2.788" rx="3.102" ry="2.788" transform="translate(108.569 117.115)" fill="#fff"/><ellipse cx="3.102" cy="2.788" rx="3.102" ry="2.788" transform="translate(130.283 117.115)" fill="#fff"/><ellipse cx="3.102" cy="2.788" rx="3.102" ry="2.788" transform="translate(151.996 117.115)" fill="#fff"/><ellipse cx="3.102" cy="2.788" rx="3.102" ry="2.788" transform="translate(173.71 117.115)" fill="#fff"/><ellipse cx="3.102" cy="2.788" rx="3.102" ry="2.788" transform="translate(195.424 117.115)" fill="#fff"/><ellipse cx="3.102" cy="2.788" rx="3.102" ry="2.788" transform="translate(217.138 117.115)" fill="#fff"/><ellipse cx="3.102" cy="2.788" rx="3.102" ry="2.788" transform="translate(238.852 117.115)" fill="#fff"/><ellipse cx="3.102" cy="2.788" rx="3.102" ry="2.788" transform="translate(260.565 117.115)" fill="#fff"/><ellipse cx="3.102" cy="2.788" rx="3.102" ry="2.788" transform="translate(282.279 117.115)" fill="#fff"/><ellipse cx="3.102" cy="2.788" rx="3.102" ry="2.788" transform="translate(303.993 117.115)" fill="#fff"/><ellipse cx="3.102" cy="2.788" rx="3.102" ry="2.788" transform="translate(325.707 117.115)" fill="#fff"/><ellipse cx="3.102" cy="2.788" rx="3.102" ry="2.788" transform="translate(347.42 117.115)" fill="#fff"/><ellipse cx="3.102" cy="2.788" rx="3.102" ry="2.788" transform="translate(369.134 117.115)" fill="#fff"/><ellipse cx="3.102" cy="2.788" rx="3.102" ry="2.788" transform="translate(0 136.635)" fill="#fff"/><ellipse cx="3.102" cy="2.788" rx="3.102" ry="2.788" transform="translate(21.714 136.635)" fill="#fff"/><ellipse cx="3.102" cy="2.788" rx="3.102" ry="2.788" transform="translate(43.428 136.635)" fill="#fff"/><ellipse cx="3.102" cy="2.788" rx="3.102" ry="2.788" transform="translate(65.141 136.635)" fill="#fff"/><ellipse cx="3.102" cy="2.788" rx="3.102" ry="2.788" transform="translate(86.855 136.635)" fill="#fff"/><ellipse cx="3.102" cy="2.788" rx="3.102" ry="2.788" transform="translate(108.569 136.635)" fill="#fff"/><ellipse cx="3.102" cy="2.788" rx="3.102" ry="2.788" transform="translate(130.283 136.635)" fill="#fff"/><ellipse cx="3.102" cy="2.788" rx="3.102" ry="2.788" transform="translate(151.996 136.635)" fill="#fff"/><ellipse cx="3.102" cy="2.788" rx="3.102" ry="2.788" transform="translate(173.71 136.635)" fill="#fff"/><ellipse cx="3.102" cy="2.788" rx="3.102" ry="2.788" transform="translate(195.424 136.635)" fill="#fff"/><ellipse cx="3.102" cy="2.788" rx="3.102" ry="2.788" transform="translate(217.138 136.635)" fill="#fff"/><ellipse cx="3.102" cy="2.788" rx="3.102" ry="2.788" transform="translate(238.852 136.635)" fill="#fff"/><ellipse cx="3.102" cy="2.788" rx="3.102" ry="2.788" transform="translate(260.565 136.635)" fill="#fff"/><ellipse cx="3.102" cy="2.788" rx="3.102" ry="2.788" transform="translate(282.279 136.635)" fill="#fff"/><ellipse cx="3.102" cy="2.788" rx="3.102" ry="2.788" transform="translate(303.993 136.635)" fill="#fff"/><ellipse cx="3.102" cy="2.788" rx="3.102" ry="2.788" transform="translate(325.707 136.635)" fill="#fff"/><ellipse cx="3.102" cy="2.788" rx="3.102" ry="2.788" transform="translate(347.42 136.635)" fill="#fff"/><ellipse cx="3.102" cy="2.788" rx="3.102" ry="2.788" transform="translate(369.134 136.635)" fill="#fff"/><ellipse cx="3.102" cy="2.788" rx="3.102" ry="2.788" transform="translate(390.848 136.635)" fill="#fff"/><ellipse cx="3.102" cy="2.788" rx="3.102" ry="2.788" transform="translate(0 156.154)" fill="#fff"/><ellipse cx="3.102" cy="2.788" rx="3.102" ry="2.788" transform="translate(21.714 156.154)" fill="#fff"/><ellipse cx="3.102" cy="2.788" rx="3.102" ry="2.788" transform="translate(43.428 156.154)" fill="#fff"/><ellipse cx="3.102" cy="2.788" rx="3.102" ry="2.788" transform="translate(65.141 156.154)" fill="#fff"/><ellipse cx="3.102" cy="2.788" rx="3.102" ry="2.788" transform="translate(86.855 156.154)" fill="#fff"/><ellipse cx="3.102" cy="2.788" rx="3.102" ry="2.788" transform="translate(108.569 156.154)" fill="#fff"/><ellipse cx="3.102" cy="2.788" rx="3.102" ry="2.788" transform="translate(130.283 156.154)" fill="#fff"/><ellipse cx="3.102" cy="2.788" rx="3.102" ry="2.788" transform="translate(151.996 156.154)" fill="#fff"/><ellipse cx="3.102" cy="2.788" rx="3.102" ry="2.788" transform="translate(173.71 156.154)" fill="#fff"/><ellipse cx="3.102" cy="2.788" rx="3.102" ry="2.788" transform="translate(195.424 156.154)" fill="#fff"/><ellipse cx="3.102" cy="2.788" rx="3.102" ry="2.788" transform="translate(217.138 156.154)" fill="#fff"/><ellipse cx="3.102" cy="2.788" rx="3.102" ry="2.788" transform="translate(238.852 156.154)" fill="#fff"/><ellipse cx="3.102" cy="2.788" rx="3.102" ry="2.788" transform="translate(260.565 156.154)" fill="#fff"/><ellipse cx="3.102" cy="2.788" rx="3.102" ry="2.788" transform="translate(282.279 156.154)" fill="#fff"/><ellipse cx="3.102" cy="2.788" rx="3.102" ry="2.788" transform="translate(303.993 156.154)" fill="#fff"/><ellipse cx="3.102" cy="2.788" rx="3.102" ry="2.788" transform="translate(325.707 156.154)" fill="#fff"/><ellipse cx="3.102" cy="2.788" rx="3.102" ry="2.788" transform="translate(347.42 156.154)" fill="#fff"/><ellipse cx="3.102" cy="2.788" rx="3.102" ry="2.788" transform="translate(369.134 156.154)" fill="#fff"/><ellipse cx="3.102" cy="2.788" rx="3.102" ry="2.788" transform="translate(390.848 156.154)" fill="#fff"/><ellipse cx="3.102" cy="2.788" rx="3.102" ry="2.788" transform="translate(412.562 156.154)" fill="#fff"/><ellipse cx="3.102" cy="2.788" rx="3.102" ry="2.788" transform="translate(0 175.673)" fill="#fff"/><ellipse cx="3.102" cy="2.788" rx="3.102" ry="2.788" transform="translate(21.714 175.673)" fill="#fff"/><ellipse cx="3.102" cy="2.788" rx="3.102" ry="2.788" transform="translate(43.428 175.673)" fill="#fff"/><ellipse cx="3.102" cy="2.788" rx="3.102" ry="2.788" transform="translate(65.141 175.673)" fill="#fff"/><ellipse cx="3.102" cy="2.788" rx="3.102" ry="2.788" transform="translate(86.855 175.673)" fill="#fff"/><ellipse cx="3.102" cy="2.788" rx="3.102" ry="2.788" transform="translate(108.569 175.673)" fill="#fff"/><ellipse cx="3.102" cy="2.788" rx="3.102" ry="2.788" transform="translate(130.283 175.673)" fill="#fff"/><ellipse cx="3.102" cy="2.788" rx="3.102" ry="2.788" transform="translate(151.996 175.673)" fill="#fff"/><ellipse cx="3.102" cy="2.788" rx="3.102" ry="2.788" transform="translate(173.71 175.673)" fill="#fff"/><ellipse cx="3.102" cy="2.788" rx="3.102" ry="2.788" transform="translate(195.424 175.673)" fill="#fff"/><ellipse cx="3.102" cy="2.788" rx="3.102" ry="2.788" transform="translate(217.138 175.673)" fill="#fff"/><ellipse cx="3.102" cy="2.788" rx="3.102" ry="2.788" transform="translate(238.852 175.673)" fill="#fff"/><ellipse cx="3.102" cy="2.788" rx="3.102" ry="2.788" transform="translate(260.565 175.673)" fill="#fff"/><ellipse cx="3.102" cy="2.788" rx="3.102" ry="2.788" transform="translate(282.279 175.673)" fill="#fff"/><ellipse cx="3.102" cy="2.788" rx="3.102" ry="2.788" transform="translate(303.993 175.673)" fill="#fff"/><ellipse cx="3.102" cy="2.788" rx="3.102" ry="2.788" transform="translate(325.707 175.673)" fill="#fff"/><ellipse cx="3.102" cy="2.788" rx="3.102" ry="2.788" transform="translate(347.42 175.673)" fill="#fff"/><ellipse cx="3.102" cy="2.788" rx="3.102" ry="2.788" transform="translate(369.134 175.673)" fill="#fff"/><ellipse cx="3.102" cy="2.788" rx="3.102" ry="2.788" transform="translate(390.848 175.673)" fill="#fff"/><ellipse cx="3.102" cy="2.788" rx="3.102" ry="2.788" transform="translate(412.562 175.673)" fill="#fff"/><ellipse cx="3.102" cy="2.788" rx="3.102" ry="2.788" transform="translate(0 195.192)" fill="#fff"/><ellipse cx="3.102" cy="2.788" rx="3.102" ry="2.788" transform="translate(21.714 195.192)" fill="#fff"/><ellipse cx="3.102" cy="2.788" rx="3.102" ry="2.788" transform="translate(43.428 195.192)" fill="#fff"/><ellipse cx="3.102" cy="2.788" rx="3.102" ry="2.788" transform="translate(65.141 195.192)" fill="#fff"/><ellipse cx="3.102" cy="2.788" rx="3.102" ry="2.788" transform="translate(86.855 195.192)" fill="#fff"/><ellipse cx="3.102" cy="2.788" rx="3.102" ry="2.788" transform="translate(108.569 195.192)" fill="#fff"/><ellipse cx="3.102" cy="2.788" rx="3.102" ry="2.788" transform="translate(130.283 195.192)" fill="#fff"/><ellipse cx="3.102" cy="2.788" rx="3.102" ry="2.788" transform="translate(151.996 195.192)" fill="#fff"/><ellipse cx="3.102" cy="2.788" rx="3.102" ry="2.788" transform="translate(173.71 195.192)" fill="#fff"/><ellipse cx="3.102" cy="2.788" rx="3.102" ry="2.788" transform="translate(195.424 195.192)" fill="#fff"/><ellipse cx="3.102" cy="2.788" rx="3.102" ry="2.788" transform="translate(217.138 195.192)" fill="#fff"/><ellipse cx="3.102" cy="2.788" rx="3.102" ry="2.788" transform="translate(238.852 195.192)" fill="#fff"/><ellipse cx="3.102" cy="2.788" rx="3.102" ry="2.788" transform="translate(260.565 195.192)" fill="#fff"/><ellipse cx="3.102" cy="2.788" rx="3.102" ry="2.788" transform="translate(282.279 195.192)" fill="#fff"/><ellipse cx="3.102" cy="2.788" rx="3.102" ry="2.788" transform="translate(303.993 195.192)" fill="#fff"/><ellipse cx="3.102" cy="2.788" rx="3.102" ry="2.788" transform="translate(325.707 195.192)" fill="#fff"/><ellipse cx="3.102" cy="2.788" rx="3.102" ry="2.788" transform="translate(347.42 195.192)" fill="#fff"/><ellipse cx="3.102" cy="2.788" rx="3.102" ry="2.788" transform="translate(369.134 195.192)" fill="#fff"/><ellipse cx="3.102" cy="2.788" rx="3.102" ry="2.788" transform="translate(390.848 195.192)" fill="#fff"/><ellipse cx="3.102" cy="2.788" rx="3.102" ry="2.788" transform="translate(412.562 195.192)" fill="#fff"/><ellipse cx="3.102" cy="2.788" rx="3.102" ry="2.788" transform="translate(0 214.711)" fill="#fff"/><ellipse cx="3.102" cy="2.788" rx="3.102" ry="2.788" transform="translate(21.714 214.711)" fill="#fff"/><ellipse cx="3.102" cy="2.788" rx="3.102" ry="2.788" transform="translate(43.428 214.711)" fill="#fff"/><ellipse cx="3.102" cy="2.788" rx="3.102" ry="2.788" transform="translate(65.141 214.711)" fill="#fff"/><ellipse cx="3.102" cy="2.788" rx="3.102" ry="2.788" transform="translate(86.855 214.711)" fill="#fff"/><ellipse cx="3.102" cy="2.788" rx="3.102" ry="2.788" transform="translate(108.569 214.711)" fill="#fff"/><ellipse cx="3.102" cy="2.788" rx="3.102" ry="2.788" transform="translate(130.283 214.711)" fill="#fff"/><ellipse cx="3.102" cy="2.788" rx="3.102" ry="2.788" transform="translate(151.996 214.711)" fill="#fff"/><ellipse cx="3.102" cy="2.788" rx="3.102" ry="2.788" transform="translate(173.71 214.711)" fill="#fff"/><ellipse cx="3.102" cy="2.788" rx="3.102" ry="2.788" transform="translate(195.424 214.711)" fill="#fff"/><ellipse cx="3.102" cy="2.788" rx="3.102" ry="2.788" transform="translate(217.138 214.711)" fill="#fff"/><ellipse cx="3.102" cy="2.788" rx="3.102" ry="2.788" transform="translate(238.852 214.711)" fill="#fff"/><ellipse cx="3.102" cy="2.788" rx="3.102" ry="2.788" transform="translate(260.565 214.711)" fill="#fff"/><ellipse cx="3.102" cy="2.788" rx="3.102" ry="2.788" transform="translate(282.279 214.711)" fill="#fff"/><ellipse cx="3.102" cy="2.788" rx="3.102" ry="2.788" transform="translate(303.993 214.711)" fill="#fff"/><ellipse cx="3.102" cy="2.788" rx="3.102" ry="2.788" transform="translate(325.707 214.711)" fill="#fff"/><ellipse cx="3.102" cy="2.788" rx="3.102" ry="2.788" transform="translate(347.42 214.711)" fill="#fff"/><ellipse cx="3.102" cy="2.788" rx="3.102" ry="2.788" transform="translate(369.134 214.711)" fill="#fff"/><ellipse cx="3.102" cy="2.788" rx="3.102" ry="2.788" transform="translate(390.848 214.711)" fill="#fff"/><ellipse cx="3.102" cy="2.788" rx="3.102" ry="2.788" transform="translate(412.562 214.711)" fill="#fff"/><ellipse cx="3.102" cy="2.788" rx="3.102" ry="2.788" transform="translate(0 234.231)" fill="#fff"/><ellipse cx="3.102" cy="2.788" rx="3.102" ry="2.788" transform="translate(21.714 234.231)" fill="#fff"/><ellipse cx="3.102" cy="2.788" rx="3.102" ry="2.788" transform="translate(43.428 234.231)" fill="#fff"/><ellipse cx="3.102" cy="2.788" rx="3.102" ry="2.788" transform="translate(65.141 234.231)" fill="#fff"/><ellipse cx="3.102" cy="2.788" rx="3.102" ry="2.788" transform="translate(86.855 234.231)" fill="#fff"/><ellipse cx="3.102" cy="2.788" rx="3.102" ry="2.788" transform="translate(108.569 234.231)" fill="#fff"/><ellipse cx="3.102" cy="2.788" rx="3.102" ry="2.788" transform="translate(130.283 234.231)" fill="#fff"/><ellipse cx="3.102" cy="2.788" rx="3.102" ry="2.788" transform="translate(151.996 234.231)" fill="#fff"/><ellipse cx="3.102" cy="2.788" rx="3.102" ry="2.788" transform="translate(173.71 234.231)" fill="#fff"/><ellipse cx="3.102" cy="2.788" rx="3.102" ry="2.788" transform="translate(195.424 234.231)" fill="#fff"/><ellipse cx="3.102" cy="2.788" rx="3.102" ry="2.788" transform="translate(217.138 234.231)" fill="#fff"/><ellipse cx="3.102" cy="2.788" rx="3.102" ry="2.788" transform="translate(238.852 234.231)" fill="#fff"/><ellipse cx="3.102" cy="2.788" rx="3.102" ry="2.788" transform="translate(260.565 234.231)" fill="#fff"/><ellipse cx="3.102" cy="2.788" rx="3.102" ry="2.788" transform="translate(282.279 234.231)" fill="#fff"/><ellipse cx="3.102" cy="2.788" rx="3.102" ry="2.788" transform="translate(303.993 234.231)" fill="#fff"/><ellipse cx="3.102" cy="2.788" rx="3.102" ry="2.788" transform="translate(325.707 234.231)" fill="#fff"/><ellipse cx="3.102" cy="2.788" rx="3.102" ry="2.788" transform="translate(347.42 234.231)" fill="#fff"/><ellipse cx="3.102" cy="2.788" rx="3.102" ry="2.788" transform="translate(369.134 234.231)" fill="#fff"/><ellipse cx="3.102" cy="2.788" rx="3.102" ry="2.788" transform="translate(390.848 234.231)" fill="#fff"/><ellipse cx="3.102" cy="2.788" rx="3.102" ry="2.788" transform="translate(412.562 234.231)" fill="#fff"/><ellipse cx="3.102" cy="2.788" rx="3.102" ry="2.788" transform="translate(0 253.75)" fill="#fff"/><ellipse cx="3.102" cy="2.788" rx="3.102" ry="2.788" transform="translate(21.714 253.75)" fill="#fff"/><ellipse cx="3.102" cy="2.788" rx="3.102" ry="2.788" transform="translate(43.428 253.75)" fill="#fff"/><ellipse cx="3.102" cy="2.788" rx="3.102" ry="2.788" transform="translate(65.141 253.75)" fill="#fff"/><ellipse cx="3.102" cy="2.788" rx="3.102" ry="2.788" transform="translate(86.855 253.75)" fill="#fff"/><ellipse cx="3.102" cy="2.788" rx="3.102" ry="2.788" transform="translate(108.569 253.75)" fill="#fff"/><ellipse cx="3.102" cy="2.788" rx="3.102" ry="2.788" transform="translate(130.283 253.75)" fill="#fff"/><ellipse cx="3.102" cy="2.788" rx="3.102" ry="2.788" transform="translate(151.996 253.75)" fill="#fff"/><ellipse cx="3.102" cy="2.788" rx="3.102" ry="2.788" transform="translate(173.71 253.75)" fill="#fff"/><ellipse cx="3.102" cy="2.788" rx="3.102" ry="2.788" transform="translate(195.424 253.75)" fill="#fff"/><ellipse cx="3.102" cy="2.788" rx="3.102" ry="2.788" transform="translate(217.138 253.75)" fill="#fff"/><ellipse cx="3.102" cy="2.788" rx="3.102" ry="2.788" transform="translate(238.852 253.75)" fill="#fff"/><ellipse cx="3.102" cy="2.788" rx="3.102" ry="2.788" transform="translate(260.565 253.75)" fill="#fff"/><ellipse cx="3.102" cy="2.788" rx="3.102" ry="2.788" transform="translate(282.279 253.75)" fill="#fff"/><ellipse cx="3.102" cy="2.788" rx="3.102" ry="2.788" transform="translate(303.993 253.75)" fill="#fff"/><ellipse cx="3.102" cy="2.788" rx="3.102" ry="2.788" transform="translate(325.707 253.75)" fill="#fff"/><ellipse cx="3.102" cy="2.788" rx="3.102" ry="2.788" transform="translate(347.42 253.75)" fill="#fff"/><ellipse cx="3.102" cy="2.788" rx="3.102" ry="2.788" transform="translate(369.134 253.75)" fill="#fff"/><ellipse cx="3.102" cy="2.788" rx="3.102" ry="2.788" transform="translate(390.848 253.75)" fill="#fff"/><ellipse cx="3.102" cy="2.788" rx="3.102" ry="2.788" transform="translate(0 273.269)" fill="#fff"/><ellipse cx="3.102" cy="2.788" rx="3.102" ry="2.788" transform="translate(21.714 273.269)" fill="#fff"/><ellipse cx="3.102" cy="2.788" rx="3.102" ry="2.788" transform="translate(43.428 273.269)" fill="#fff"/><ellipse cx="3.102" cy="2.788" rx="3.102" ry="2.788" transform="translate(65.141 273.269)" fill="#fff"/><ellipse cx="3.102" cy="2.788" rx="3.102" ry="2.788" transform="translate(86.855 273.269)" fill="#fff"/><ellipse cx="3.102" cy="2.788" rx="3.102" ry="2.788" transform="translate(108.569 273.269)" fill="#fff"/><ellipse cx="3.102" cy="2.788" rx="3.102" ry="2.788" transform="translate(130.283 273.269)" fill="#fff"/><ellipse cx="3.102" cy="2.788" rx="3.102" ry="2.788" transform="translate(151.996 273.269)" fill="#fff"/><ellipse cx="3.102" cy="2.788" rx="3.102" ry="2.788" transform="translate(173.71 273.269)" fill="#fff"/><ellipse cx="3.102" cy="2.788" rx="3.102" ry="2.788" transform="translate(195.424 273.269)" fill="#fff"/><ellipse cx="3.102" cy="2.788" rx="3.102" ry="2.788" transform="translate(217.138 273.269)" fill="#fff"/><ellipse cx="3.102" cy="2.788" rx="3.102" ry="2.788" transform="translate(238.852 273.269)" fill="#fff"/><ellipse cx="3.102" cy="2.788" rx="3.102" ry="2.788" transform="translate(260.565 273.269)" fill="#fff"/><ellipse cx="3.102" cy="2.788" rx="3.102" ry="2.788" transform="translate(282.279 273.269)" fill="#fff"/><ellipse cx="3.102" cy="2.788" rx="3.102" ry="2.788" transform="translate(303.993 273.269)" fill="#fff"/><ellipse cx="3.102" cy="2.788" rx="3.102" ry="2.788" transform="translate(325.707 273.269)" fill="#fff"/><ellipse cx="3.102" cy="2.788" rx="3.102" ry="2.788" transform="translate(347.42 273.269)" fill="#fff"/><ellipse cx="3.102" cy="2.788" rx="3.102" ry="2.788" transform="translate(369.134 273.269)" fill="#fff"/><ellipse cx="3.102" cy="2.788" rx="3.102" ry="2.788" transform="translate(0 292.788)" fill="#fff"/><ellipse cx="3.102" cy="2.788" rx="3.102" ry="2.788" transform="translate(21.714 292.788)" fill="#fff"/><ellipse cx="3.102" cy="2.788" rx="3.102" ry="2.788" transform="translate(43.428 292.788)" fill="#fff"/><ellipse cx="3.102" cy="2.788" rx="3.102" ry="2.788" transform="translate(65.141 292.788)" fill="#fff"/><ellipse cx="3.102" cy="2.788" rx="3.102" ry="2.788" transform="translate(86.855 292.788)" fill="#fff"/><ellipse cx="3.102" cy="2.788" rx="3.102" ry="2.788" transform="translate(108.569 292.788)" fill="#fff"/><ellipse cx="3.102" cy="2.788" rx="3.102" ry="2.788" transform="translate(130.283 292.788)" fill="#fff"/><ellipse cx="3.102" cy="2.788" rx="3.102" ry="2.788" transform="translate(151.996 292.788)" fill="#fff"/><ellipse cx="3.102" cy="2.788" rx="3.102" ry="2.788" transform="translate(173.71 292.788)" fill="#fff"/><ellipse cx="3.102" cy="2.788" rx="3.102" ry="2.788" transform="translate(195.424 292.788)" fill="#fff"/><ellipse cx="3.102" cy="2.788" rx="3.102" ry="2.788" transform="translate(217.138 292.788)" fill="#fff"/><ellipse cx="3.102" cy="2.788" rx="3.102" ry="2.788" transform="translate(238.852 292.788)" fill="#fff"/><ellipse cx="3.102" cy="2.788" rx="3.102" ry="2.788" transform="translate(260.565 292.788)" fill="#fff"/><ellipse cx="3.102" cy="2.788" rx="3.102" ry="2.788" transform="translate(282.279 292.788)" fill="#fff"/><ellipse cx="3.102" cy="2.788" rx="3.102" ry="2.788" transform="translate(303.993 292.788)" fill="#fff"/><ellipse cx="3.102" cy="2.788" rx="3.102" ry="2.788" transform="translate(325.707 292.788)" fill="#fff"/><ellipse cx="3.102" cy="2.788" rx="3.102" ry="2.788" transform="translate(21.714 312.308)" fill="#fff"/><ellipse cx="3.102" cy="2.788" rx="3.102" ry="2.788" transform="translate(43.428 312.308)" fill="#fff"/><ellipse cx="3.102" cy="2.788" rx="3.102" ry="2.788" transform="translate(65.141 312.308)" fill="#fff"/><ellipse cx="3.102" cy="2.788" rx="3.102" ry="2.788" transform="translate(86.855 312.308)" fill="#fff"/><ellipse cx="3.102" cy="2.788" rx="3.102" ry="2.788" transform="translate(108.569 312.308)" fill="#fff"/><ellipse cx="3.102" cy="2.788" rx="3.102" ry="2.788" transform="translate(130.283 312.308)" fill="#fff"/><ellipse cx="3.102" cy="2.788" rx="3.102" ry="2.788" transform="translate(151.996 312.308)" fill="#fff"/><ellipse cx="3.102" cy="2.788" rx="3.102" ry="2.788" transform="translate(173.71 312.308)" fill="#fff"/><ellipse cx="3.102" cy="2.788" rx="3.102" ry="2.788" transform="translate(195.424 312.308)" fill="#fff"/><ellipse cx="3.102" cy="2.788" rx="3.102" ry="2.788" transform="translate(217.138 312.308)" fill="#fff"/><ellipse cx="3.102" cy="2.788" rx="3.102" ry="2.788" transform="translate(238.852 312.308)" fill="#fff"/><ellipse cx="3.102" cy="2.788" rx="3.102" ry="2.788" transform="translate(260.565 312.308)" fill="#fff"/><ellipse cx="3.102" cy="2.788" rx="3.102" ry="2.788" transform="translate(282.279 312.308)" fill="#fff"/><ellipse cx="3.102" cy="2.788" rx="3.102" ry="2.788" transform="translate(43.428 331.827)" fill="#fff"/><ellipse cx="3.102" cy="2.788" rx="3.102" ry="2.788" transform="translate(65.141 331.827)" fill="#fff"/><ellipse cx="3.102" cy="2.788" rx="3.102" ry="2.788" transform="translate(86.855 331.827)" fill="#fff"/><ellipse cx="3.102" cy="2.788" rx="3.102" ry="2.788" transform="translate(108.569 331.827)" fill="#fff"/><ellipse cx="3.102" cy="2.788" rx="3.102" ry="2.788" transform="translate(130.283 331.827)" fill="#fff"/><ellipse cx="3.102" cy="2.788" rx="3.102" ry="2.788" transform="translate(151.996 331.827)" fill="#fff"/><ellipse cx="3.102" cy="2.788" rx="3.102" ry="2.788" transform="translate(173.71 331.827)" fill="#fff"/><ellipse cx="3.102" cy="2.788" rx="3.102" ry="2.788" transform="translate(195.424 331.827)" fill="#fff"/><ellipse cx="3.102" cy="2.788" rx="3.102" ry="2.788" transform="translate(86.855 351.346)" fill="#fff"/><ellipse cx="3.102" cy="2.788" rx="3.102" ry="2.788" transform="translate(108.569 351.346)" fill="#fff"/></g></g></g></svg>